<svg width="382" height="359" viewBox="0 0 382 359" fill="none" xmlns="http://www.w3.org/2000/svg">
<g filter="url(#filter0_ddddd_228_5)">
<rect x="28.2263" y="0.781006" width="325.402" height="285" fill="white"/>
<rect x="28.5275" y="1.08223" width="324.8" height="284.398" stroke="#F1F1F1" stroke-width="0.602457"/>
</g>
<path d="M90.3454 56.6692C90.3454 54.8872 90.756 53.2885 91.5771 51.8734C92.4157 50.4582 93.5426 49.3575 94.9578 48.5713C96.3904 47.7676 97.9541 47.3658 99.6488 47.3658C101.588 47.3658 103.309 47.8462 104.812 48.8072C106.332 49.7506 107.432 51.0959 108.114 52.843H104.523C104.052 51.8821 103.396 51.1658 102.558 50.6941C101.719 50.2223 100.75 49.9865 99.6488 49.9865C98.4433 49.9865 97.3688 50.2573 96.4254 50.7989C95.4819 51.3405 94.7394 52.118 94.1978 53.1313C93.6737 54.1446 93.4116 55.3239 93.4116 56.6692C93.4116 58.0145 93.6737 59.1938 94.1978 60.2072C94.7394 61.2205 95.4819 62.0067 96.4254 62.5658C97.3688 63.1074 98.4433 63.3782 99.6488 63.3782C100.75 63.3782 101.719 63.1423 102.558 62.6706C103.396 62.1989 104.052 61.4826 104.523 60.5216H108.114C107.432 62.2688 106.332 63.6141 104.812 64.5575C103.309 65.5009 101.588 65.9727 99.6488 65.9727C97.9367 65.9727 96.373 65.5796 94.9578 64.7934C93.5426 63.9897 92.4157 62.8803 91.5771 61.4651C90.756 60.0499 90.3454 58.4513 90.3454 56.6692ZM114.336 53.472C114.773 52.7382 115.349 52.1704 116.066 51.7685C116.8 51.3492 117.664 51.1396 118.66 51.1396V54.232H117.9C116.73 54.232 115.839 54.529 115.227 55.123C114.633 55.717 114.336 56.7478 114.336 58.2154V65.8154H111.349V51.3754H114.336V53.472ZM134.379 58.2416C134.379 58.7832 134.344 59.2724 134.274 59.7092H123.241C123.328 60.8623 123.756 61.7883 124.525 62.4872C125.294 63.186 126.237 63.5354 127.355 63.5354C128.963 63.5354 130.098 62.8628 130.762 61.5175H133.986C133.549 62.8453 132.754 63.9373 131.601 64.7934C130.465 65.632 129.05 66.0513 127.355 66.0513C125.975 66.0513 124.735 65.7455 123.634 65.1341C122.551 64.5051 121.695 63.6315 121.066 62.5134C120.454 61.3777 120.149 60.0674 120.149 58.5823C120.149 57.0973 120.446 55.7957 121.04 54.6775C121.651 53.5419 122.498 52.6683 123.582 52.0568C124.682 51.4453 125.94 51.1396 127.355 51.1396C128.718 51.1396 129.932 51.4366 130.998 52.0306C132.064 52.6246 132.894 53.4632 133.488 54.5465C134.082 55.6122 134.379 56.8439 134.379 58.2416ZM131.26 57.2982C131.243 56.1975 130.85 55.3152 130.081 54.6513C129.312 53.9874 128.36 53.6554 127.224 53.6554C126.194 53.6554 125.311 53.9874 124.578 54.6513C123.844 55.2977 123.407 56.18 123.267 57.2982H131.26ZM136.061 58.5299C136.061 57.0798 136.358 55.7957 136.952 54.6775C137.564 53.5593 138.385 52.6945 139.416 52.083C140.464 51.4541 141.617 51.1396 142.875 51.1396C144.01 51.1396 144.998 51.3667 145.836 51.8209C146.692 52.2577 147.374 52.8081 147.88 53.472V51.3754H150.894V65.8154H147.88V63.6665C147.374 64.3478 146.684 64.9157 145.81 65.3699C144.936 65.8242 143.941 66.0513 142.822 66.0513C141.582 66.0513 140.446 65.7368 139.416 65.1078C138.385 64.4614 137.564 63.5704 136.952 62.4347C136.358 61.2816 136.061 59.98 136.061 58.5299ZM147.88 58.5823C147.88 57.5865 147.671 56.7216 147.251 55.9878C146.85 55.254 146.317 54.695 145.653 54.3106C144.989 53.9262 144.273 53.7341 143.504 53.7341C142.735 53.7341 142.019 53.9262 141.355 54.3106C140.691 54.6775 140.149 55.2278 139.73 55.9616C139.328 56.678 139.127 57.5341 139.127 58.5299C139.127 59.5258 139.328 60.3993 139.73 61.1506C140.149 61.9019 140.691 62.4784 141.355 62.8803C142.036 63.2646 142.753 63.4568 143.504 63.4568C144.273 63.4568 144.989 63.2646 145.653 62.8803C146.317 62.4959 146.85 61.9368 147.251 61.203C147.671 60.4518 147.88 59.5782 147.88 58.5823ZM158.042 53.8127V61.8058C158.042 62.3474 158.164 62.7405 158.409 62.9851C158.671 63.2122 159.107 63.3258 159.719 63.3258H161.553V65.8154H159.195C157.85 65.8154 156.819 65.5009 156.102 64.872C155.386 64.243 155.028 63.2209 155.028 61.8058V53.8127H153.324V51.3754H155.028V47.7851H158.042V51.3754H161.553V53.8127H158.042ZM177.279 58.2416C177.279 58.7832 177.244 59.2724 177.175 59.7092H166.141C166.229 60.8623 166.657 61.7883 167.426 62.4872C168.194 63.186 169.138 63.5354 170.256 63.5354C171.863 63.5354 172.999 62.8628 173.663 61.5175H176.886C176.45 62.8453 175.655 63.9373 174.501 64.7934C173.366 65.632 171.951 66.0513 170.256 66.0513C168.876 66.0513 167.635 65.7455 166.535 65.1341C165.451 64.5051 164.595 63.6315 163.966 62.5134C163.355 61.3777 163.049 60.0674 163.049 58.5823C163.049 57.0973 163.346 55.7957 163.94 54.6775C164.552 53.5419 165.399 52.6683 166.482 52.0568C167.583 51.4453 168.841 51.1396 170.256 51.1396C171.619 51.1396 172.833 51.4366 173.899 52.0306C174.964 52.6246 175.794 53.4632 176.388 54.5465C176.982 55.6122 177.279 56.8439 177.279 58.2416ZM174.161 57.2982C174.143 56.1975 173.75 55.3152 172.981 54.6513C172.213 53.9874 171.261 53.6554 170.125 53.6554C169.094 53.6554 168.212 53.9874 167.478 54.6513C166.744 55.2977 166.307 56.18 166.168 57.2982H174.161ZM197.484 62.0941H189.857L188.547 65.8154H185.429L191.954 47.5754H195.413L201.939 65.8154H198.794L197.484 62.0941ZM196.645 59.6568L193.684 51.192L190.696 59.6568H196.645ZM203.518 58.5823C203.518 57.0973 203.815 55.7957 204.409 54.6775C205.021 53.5419 205.859 52.6683 206.925 52.0568C207.991 51.4453 209.214 51.1396 210.594 51.1396C212.341 51.1396 213.783 51.5589 214.918 52.3975C216.071 53.2186 216.849 54.398 217.251 55.9354H214.027C213.765 55.2191 213.346 54.66 212.769 54.2582C212.193 53.8563 211.468 53.6554 210.594 53.6554C209.371 53.6554 208.393 54.0922 207.659 54.9658C206.943 55.8219 206.584 57.0274 206.584 58.5823C206.584 60.1373 206.943 61.3515 207.659 62.2251C208.393 63.0986 209.371 63.5354 210.594 63.5354C212.324 63.5354 213.468 62.7754 214.027 61.2554H217.251C216.831 62.723 216.045 63.8936 214.892 64.7672C213.739 65.6232 212.306 66.0513 210.594 66.0513C209.214 66.0513 207.991 65.7455 206.925 65.1341C205.859 64.5051 205.021 63.6315 204.409 62.5134C203.815 61.3777 203.518 60.0674 203.518 58.5823ZM218.97 58.5823C218.97 57.0973 219.267 55.7957 219.861 54.6775C220.473 53.5419 221.311 52.6683 222.377 52.0568C223.443 51.4453 224.666 51.1396 226.046 51.1396C227.793 51.1396 229.234 51.5589 230.37 52.3975C231.523 53.2186 232.301 54.398 232.702 55.9354H229.479C229.217 55.2191 228.798 54.66 228.221 54.2582C227.645 53.8563 226.919 53.6554 226.046 53.6554C224.823 53.6554 223.845 54.0922 223.111 54.9658C222.394 55.8219 222.036 57.0274 222.036 58.5823C222.036 60.1373 222.394 61.3515 223.111 62.2251C223.845 63.0986 224.823 63.5354 226.046 63.5354C227.776 63.5354 228.92 62.7754 229.479 61.2554H232.702C232.283 62.723 231.497 63.8936 230.344 64.7672C229.191 65.6232 227.758 66.0513 226.046 66.0513C224.666 66.0513 223.443 65.7455 222.377 65.1341C221.311 64.5051 220.473 63.6315 219.861 62.5134C219.267 61.3777 218.97 60.0674 218.97 58.5823ZM241.681 66.0513C240.318 66.0513 239.087 65.7455 237.986 65.1341C236.885 64.5051 236.021 63.6315 235.392 62.5134C234.763 61.3777 234.448 60.0674 234.448 58.5823C234.448 57.1147 234.771 55.8131 235.418 54.6775C236.064 53.5419 236.946 52.6683 238.065 52.0568C239.183 51.4453 240.432 51.1396 241.812 51.1396C243.192 51.1396 244.442 51.4453 245.56 52.0568C246.678 52.6683 247.56 53.5419 248.207 54.6775C248.853 55.8131 249.176 57.1147 249.176 58.5823C249.176 60.0499 248.844 61.3515 248.181 62.4872C247.517 63.6228 246.608 64.5051 245.455 65.1341C244.319 65.7455 243.061 66.0513 241.681 66.0513ZM241.681 63.4568C242.45 63.4568 243.166 63.2734 243.83 62.9065C244.512 62.5396 245.062 61.9892 245.481 61.2554C245.901 60.5216 246.11 59.6306 246.11 58.5823C246.11 57.534 245.909 56.6518 245.507 55.9354C245.106 55.2016 244.573 54.6513 243.909 54.2844C243.245 53.9175 242.529 53.7341 241.76 53.7341C240.991 53.7341 240.275 53.9175 239.611 54.2844C238.964 54.6513 238.449 55.2016 238.065 55.9354C237.68 56.6518 237.488 57.534 237.488 58.5823C237.488 60.1373 237.881 61.3428 238.667 62.1989C239.471 63.0375 240.476 63.4568 241.681 63.4568ZM264.945 51.3754V65.8154H261.957V64.112C261.486 64.706 260.865 65.1777 260.097 65.5272C259.345 65.8591 258.542 66.0251 257.686 66.0251C256.55 66.0251 255.528 65.7892 254.619 65.3175C253.728 64.8458 253.021 64.1469 252.497 63.2209C251.99 62.295 251.737 61.1768 251.737 59.8665V51.3754H254.698V59.4209C254.698 60.7138 255.021 61.7097 255.668 62.4085C256.314 63.0899 257.196 63.4306 258.315 63.4306C259.433 63.4306 260.315 63.0899 260.961 62.4085C261.625 61.7097 261.957 60.7138 261.957 59.4209V51.3754H264.945ZM275.91 51.1396C277.046 51.1396 278.059 51.3754 278.95 51.8472C279.859 52.3189 280.566 53.0177 281.073 53.9437C281.58 54.8697 281.833 55.9878 281.833 57.2982V65.8154H278.872V57.7437C278.872 56.4508 278.548 55.4637 277.902 54.7823C277.256 54.0835 276.373 53.7341 275.255 53.7341C274.137 53.7341 273.246 54.0835 272.582 54.7823C271.936 55.4637 271.612 56.4508 271.612 57.7437V65.8154H268.625V51.3754H271.612V53.0265C272.102 52.4324 272.722 51.9695 273.473 51.6375C274.242 51.3055 275.054 51.1396 275.91 51.1396ZM288.867 53.8127V61.8058C288.867 62.3474 288.99 62.7405 289.234 62.9851C289.496 63.2122 289.933 63.3258 290.545 63.3258H292.379V65.8154H290.02C288.675 65.8154 287.644 65.5009 286.928 64.872C286.212 64.243 285.854 63.2209 285.854 61.8058V53.8127H284.15V51.3754H285.854V47.7851H288.867V51.3754H292.379V53.8127H288.867Z" fill="#222831"/>
<rect x="65.3528" y="97.9648" width="252.241" height="10.9195" rx="5.45977" fill="#F1F1F1"/>
<rect x="77.3643" y="124.172" width="228.218" height="10.9195" rx="5.45977" fill="#F1F1F1"/>
<rect x="80.6401" y="150.379" width="221.667" height="10.9195" rx="5.45977" fill="#F1F1F1"/>
<rect x="77.3643" y="176.586" width="228.218" height="10.9195" rx="5.45977" fill="#F1F1F1"/>
<g filter="url(#filter1_dddddd_228_5)">
<path d="M85.2263 215.082H297.226C301.478 215.082 304.926 218.529 304.926 222.781V241.781C304.926 246.033 301.478 249.48 297.226 249.48H85.2263C80.9744 249.48 77.5271 246.033 77.5271 241.781V222.781C77.5271 218.529 80.9744 215.082 85.2263 215.082Z" stroke="#313131" stroke-opacity="0.17" stroke-width="0.602457"/>
</g>
<path d="M87.1751 232.659C87.1751 231.921 87.3413 231.26 87.6739 230.674C88.0065 230.081 88.4583 229.619 89.0294 229.286C89.6078 228.954 90.2476 228.787 90.9489 228.787C91.773 228.787 92.4924 228.986 93.1069 229.384C93.7214 229.781 94.1696 230.345 94.4515 231.075H93.2695C93.0599 230.62 92.7562 230.269 92.3586 230.024C91.9682 229.778 91.4983 229.655 90.9489 229.655C90.4211 229.655 89.9476 229.778 89.5283 230.024C89.109 230.269 88.78 230.62 88.5414 231.075C88.3029 231.524 88.1836 232.051 88.1836 232.659C88.1836 233.259 88.3029 233.787 88.5414 234.242C88.78 234.69 89.109 235.037 89.5283 235.283C89.9476 235.529 90.4211 235.652 90.9489 235.652C91.4983 235.652 91.9682 235.532 92.3586 235.294C92.7562 235.048 93.0599 234.697 93.2695 234.242H94.4515C94.1696 234.965 93.7214 235.525 93.1069 235.923C92.4924 236.313 91.773 236.508 90.9489 236.508C90.2476 236.508 89.6078 236.346 89.0294 236.02C88.4583 235.688 88.0065 235.229 87.6739 234.643C87.3413 234.058 87.1751 233.396 87.1751 232.659ZM98.5123 236.541C97.9556 236.541 97.4496 236.414 96.9941 236.161C96.5459 235.908 96.1916 235.551 95.9314 235.088C95.6783 234.618 95.5518 234.076 95.5518 233.461C95.5518 232.854 95.6819 232.319 95.9422 231.856C96.2097 231.386 96.5712 231.028 97.0266 230.783C97.4821 230.53 97.9918 230.403 98.5557 230.403C99.1196 230.403 99.6292 230.53 100.085 230.783C100.54 231.028 100.898 231.383 101.158 231.845C101.426 232.308 101.56 232.847 101.56 233.461C101.56 234.076 101.422 234.618 101.147 235.088C100.88 235.551 100.515 235.908 100.052 236.161C99.5895 236.414 99.0762 236.541 98.5123 236.541ZM98.5123 235.673C98.8665 235.673 99.1991 235.59 99.51 235.424C99.8208 235.258 100.07 235.008 100.258 234.676C100.453 234.343 100.551 233.938 100.551 233.461C100.551 232.984 100.457 232.579 100.269 232.247C100.081 231.914 99.8353 231.668 99.5316 231.509C99.228 231.343 98.8991 231.26 98.5448 231.26C98.1833 231.26 97.8508 231.343 97.5472 231.509C97.2507 231.668 97.0122 231.914 96.8314 232.247C96.6507 232.579 96.5603 232.984 96.5603 233.461C96.5603 233.946 96.6471 234.354 96.8206 234.687C97.0013 235.019 97.2399 235.269 97.5363 235.435C97.8327 235.594 98.158 235.673 98.5123 235.673ZM105.752 230.392C106.475 230.392 107.061 230.613 107.509 231.054C107.957 231.488 108.182 232.117 108.182 232.941V236.443H107.206V233.082C107.206 232.489 107.057 232.037 106.761 231.726C106.465 231.408 106.06 231.249 105.546 231.249C105.026 231.249 104.61 231.412 104.299 231.737C103.996 232.062 103.844 232.536 103.844 233.158V236.443H102.857V230.501H103.844V231.347C104.039 231.043 104.303 230.808 104.635 230.642C104.975 230.475 105.348 230.392 105.752 230.392ZM110.997 231.314V234.817C110.997 235.106 111.059 235.312 111.182 235.435C111.304 235.551 111.518 235.608 111.821 235.608H112.548V236.443H111.659C111.109 236.443 110.697 236.317 110.422 236.064C110.148 235.811 110.01 235.395 110.01 234.817V231.314H109.24V230.501H110.01V229.004H110.997V230.501H112.548V231.314H110.997ZM113.375 233.45C113.375 232.843 113.498 232.312 113.744 231.856C113.989 231.394 114.326 231.036 114.752 230.783C115.186 230.53 115.667 230.403 116.194 230.403C116.715 230.403 117.167 230.515 117.55 230.739C117.933 230.963 118.219 231.245 118.407 231.585V230.501H119.404V236.443H118.407V235.337C118.211 235.684 117.919 235.973 117.528 236.205C117.145 236.429 116.697 236.541 116.184 236.541C115.656 236.541 115.179 236.411 114.752 236.151C114.326 235.89 113.989 235.525 113.744 235.055C113.498 234.585 113.375 234.05 113.375 233.45ZM118.407 233.461C118.407 233.013 118.316 232.623 118.136 232.29C117.955 231.957 117.709 231.704 117.398 231.531C117.094 231.35 116.758 231.26 116.39 231.26C116.021 231.26 115.685 231.347 115.381 231.52C115.077 231.694 114.835 231.947 114.655 232.279C114.474 232.612 114.383 233.002 114.383 233.45C114.383 233.906 114.474 234.303 114.655 234.643C114.835 234.976 115.077 235.232 115.381 235.413C115.685 235.587 116.021 235.673 116.39 235.673C116.758 235.673 117.094 235.587 117.398 235.413C117.709 235.232 117.955 234.976 118.136 234.643C118.316 234.303 118.407 233.909 118.407 233.461ZM120.703 233.461C120.703 232.847 120.826 232.312 121.072 231.856C121.318 231.394 121.658 231.036 122.091 230.783C122.532 230.53 123.035 230.403 123.599 230.403C124.329 230.403 124.929 230.58 125.399 230.934C125.876 231.289 126.19 231.78 126.342 232.409H125.279C125.178 232.048 124.979 231.762 124.683 231.553C124.394 231.343 124.032 231.238 123.599 231.238C123.035 231.238 122.579 231.433 122.232 231.824C121.885 232.207 121.712 232.753 121.712 233.461C121.712 234.177 121.885 234.73 122.232 235.12C122.579 235.511 123.035 235.706 123.599 235.706C124.032 235.706 124.394 235.605 124.683 235.402C124.972 235.2 125.171 234.911 125.279 234.535H126.342C126.183 235.142 125.865 235.63 125.388 235.999C124.911 236.36 124.314 236.541 123.599 236.541C123.035 236.541 122.532 236.414 122.091 236.161C121.658 235.908 121.318 235.551 121.072 235.088C120.826 234.625 120.703 234.083 120.703 233.461ZM128.863 231.314V234.817C128.863 235.106 128.924 235.312 129.047 235.435C129.17 235.551 129.383 235.608 129.687 235.608H130.413V236.443H129.524C128.975 236.443 128.563 236.317 128.288 236.064C128.013 235.811 127.876 235.395 127.876 234.817V231.314H127.106V230.501H127.876V229.004H128.863V230.501H130.413V231.314H128.863ZM139.77 230.501V236.443H138.784V235.565C138.596 235.869 138.332 236.107 137.992 236.281C137.659 236.447 137.291 236.53 136.886 236.53C136.423 236.53 136.007 236.436 135.639 236.248C135.27 236.053 134.977 235.764 134.76 235.381C134.551 234.997 134.446 234.531 134.446 233.982V230.501H135.422V233.852C135.422 234.437 135.57 234.889 135.867 235.207C136.163 235.518 136.568 235.673 137.081 235.673C137.609 235.673 138.025 235.511 138.328 235.185C138.632 234.86 138.784 234.387 138.784 233.765V230.501H139.77ZM143.54 236.541C143.085 236.541 142.676 236.465 142.315 236.313C141.954 236.154 141.668 235.937 141.458 235.663C141.249 235.381 141.133 235.059 141.111 234.697H142.131C142.16 234.994 142.297 235.236 142.543 235.424C142.796 235.612 143.125 235.706 143.53 235.706C143.906 235.706 144.202 235.623 144.419 235.457C144.636 235.29 144.744 235.081 144.744 234.828C144.744 234.567 144.628 234.376 144.397 234.253C144.166 234.123 143.808 233.996 143.324 233.873C142.883 233.758 142.521 233.642 142.239 233.526C141.964 233.403 141.726 233.226 141.523 232.995C141.328 232.756 141.231 232.445 141.231 232.062C141.231 231.759 141.321 231.48 141.502 231.227C141.682 230.974 141.939 230.775 142.272 230.631C142.604 230.479 142.984 230.403 143.41 230.403C144.068 230.403 144.6 230.569 145.004 230.902C145.409 231.235 145.626 231.69 145.655 232.268H144.668C144.647 231.957 144.52 231.708 144.289 231.52C144.065 231.332 143.761 231.238 143.378 231.238C143.024 231.238 142.742 231.314 142.532 231.466C142.322 231.618 142.217 231.816 142.217 232.062C142.217 232.257 142.279 232.42 142.402 232.55C142.532 232.673 142.691 232.774 142.879 232.854C143.074 232.926 143.342 233.009 143.681 233.103C144.108 233.219 144.455 233.335 144.722 233.45C144.99 233.559 145.218 233.725 145.406 233.949C145.601 234.173 145.702 234.466 145.709 234.828C145.709 235.153 145.619 235.446 145.438 235.706C145.257 235.966 145.001 236.172 144.668 236.324C144.343 236.469 143.967 236.541 143.54 236.541ZM151.197 231.314V234.817C151.197 235.106 151.259 235.312 151.381 235.435C151.504 235.551 151.718 235.608 152.021 235.608H152.748V236.443H151.859C151.309 236.443 150.897 236.317 150.622 236.064C150.348 235.811 150.21 235.395 150.21 234.817V231.314H149.44V230.501H150.21V229.004H151.197V230.501H152.748V231.314H151.197ZM156.535 236.541C155.979 236.541 155.473 236.414 155.017 236.161C154.569 235.908 154.215 235.551 153.954 235.088C153.701 234.618 153.575 234.076 153.575 233.461C153.575 232.854 153.705 232.319 153.965 231.856C154.233 231.386 154.594 231.028 155.05 230.783C155.505 230.53 156.015 230.403 156.579 230.403C157.143 230.403 157.652 230.53 158.108 230.783C158.563 231.028 158.921 231.383 159.181 231.845C159.449 232.308 159.583 232.847 159.583 233.461C159.583 234.076 159.445 234.618 159.17 235.088C158.903 235.551 158.538 235.908 158.075 236.161C157.612 236.414 157.099 236.541 156.535 236.541ZM156.535 235.673C156.89 235.673 157.222 235.59 157.533 235.424C157.844 235.258 158.093 235.008 158.281 234.676C158.476 234.343 158.574 233.938 158.574 233.461C158.574 232.984 158.48 232.579 158.292 232.247C158.104 231.914 157.858 231.668 157.555 231.509C157.251 231.343 156.922 231.26 156.568 231.26C156.206 231.26 155.874 231.343 155.57 231.509C155.274 231.668 155.035 231.914 154.854 232.247C154.674 232.579 154.583 232.984 154.583 233.461C154.583 233.946 154.67 234.354 154.844 234.687C155.024 235.019 155.263 235.269 155.559 235.435C155.856 235.594 156.181 235.673 156.535 235.673ZM164.758 231.466C164.931 231.126 165.177 230.862 165.495 230.674C165.821 230.486 166.215 230.392 166.677 230.392V231.412H166.417C165.311 231.412 164.758 232.012 164.758 233.212V236.443H163.771V230.501H164.758V231.466ZM173.239 233.244C173.239 233.432 173.228 233.631 173.206 233.841H168.456C168.492 234.426 168.691 234.885 169.053 235.218C169.421 235.543 169.866 235.706 170.387 235.706C170.813 235.706 171.167 235.608 171.449 235.413C171.739 235.211 171.941 234.943 172.057 234.611H173.119C172.96 235.182 172.642 235.648 172.165 236.01C171.688 236.364 171.095 236.541 170.387 236.541C169.823 236.541 169.317 236.414 168.868 236.161C168.427 235.908 168.08 235.551 167.827 235.088C167.574 234.618 167.448 234.076 167.448 233.461C167.448 232.847 167.571 232.308 167.817 231.845C168.062 231.383 168.406 231.028 168.847 230.783C169.295 230.53 169.808 230.403 170.387 230.403C170.95 230.403 171.449 230.526 171.883 230.772C172.317 231.018 172.649 231.357 172.881 231.791C173.119 232.218 173.239 232.702 173.239 233.244ZM172.219 233.038C172.219 232.662 172.136 232.341 171.97 232.073C171.804 231.798 171.576 231.592 171.287 231.455C171.005 231.31 170.69 231.238 170.343 231.238C169.844 231.238 169.418 231.397 169.064 231.715C168.717 232.033 168.518 232.474 168.467 233.038H172.219ZM176.645 236.541C176.19 236.541 175.781 236.465 175.42 236.313C175.058 236.154 174.773 235.937 174.563 235.663C174.353 235.381 174.238 235.059 174.216 234.697H175.235C175.264 234.994 175.402 235.236 175.647 235.424C175.9 235.612 176.229 235.706 176.634 235.706C177.01 235.706 177.306 235.623 177.523 235.457C177.74 235.29 177.849 235.081 177.849 234.828C177.849 234.567 177.733 234.376 177.502 234.253C177.27 234.123 176.912 233.996 176.428 233.873C175.987 233.758 175.626 233.642 175.344 233.526C175.069 233.403 174.83 233.226 174.628 232.995C174.433 232.756 174.335 232.445 174.335 232.062C174.335 231.759 174.426 231.48 174.606 231.227C174.787 230.974 175.044 230.775 175.376 230.631C175.709 230.479 176.088 230.403 176.515 230.403C177.173 230.403 177.704 230.569 178.109 230.902C178.514 231.235 178.731 231.69 178.76 232.268H177.773C177.751 231.957 177.625 231.708 177.393 231.52C177.169 231.332 176.865 231.238 176.482 231.238C176.128 231.238 175.846 231.314 175.636 231.466C175.427 231.618 175.322 231.816 175.322 232.062C175.322 232.257 175.383 232.42 175.506 232.55C175.636 232.673 175.796 232.774 175.983 232.854C176.179 232.926 176.446 233.009 176.786 233.103C177.212 233.219 177.56 233.335 177.827 233.45C178.094 233.559 178.322 233.725 178.51 233.949C178.705 234.173 178.807 234.466 178.814 234.828C178.814 235.153 178.723 235.446 178.543 235.706C178.362 235.966 178.105 236.172 177.773 236.324C177.447 236.469 177.072 236.541 176.645 236.541ZM185.629 233.244C185.629 233.432 185.618 233.631 185.596 233.841H180.847C180.883 234.426 181.082 234.885 181.443 235.218C181.812 235.543 182.256 235.706 182.777 235.706C183.204 235.706 183.558 235.608 183.84 235.413C184.129 235.211 184.331 234.943 184.447 234.611H185.51C185.351 235.182 185.033 235.648 184.555 236.01C184.078 236.364 183.485 236.541 182.777 236.541C182.213 236.541 181.707 236.414 181.259 236.161C180.818 235.908 180.471 235.551 180.218 235.088C179.965 234.618 179.838 234.076 179.838 233.461C179.838 232.847 179.961 232.308 180.207 231.845C180.453 231.383 180.796 231.028 181.237 230.783C181.685 230.53 182.199 230.403 182.777 230.403C183.341 230.403 183.84 230.526 184.273 230.772C184.707 231.018 185.04 231.357 185.271 231.791C185.51 232.218 185.629 232.702 185.629 233.244ZM184.61 233.038C184.61 232.662 184.527 232.341 184.36 232.073C184.194 231.798 183.966 231.592 183.677 231.455C183.395 231.31 183.081 231.238 182.734 231.238C182.235 231.238 181.808 231.397 181.454 231.715C181.107 232.033 180.908 232.474 180.858 233.038H184.61ZM187.918 231.466C188.092 231.126 188.338 230.862 188.656 230.674C188.981 230.486 189.375 230.392 189.838 230.392V231.412H189.578C188.471 231.412 187.918 232.012 187.918 233.212V236.443H186.932V230.501H187.918V231.466ZM193.189 235.532L195.033 230.501H196.085L193.753 236.443H192.604L190.272 230.501H191.335L193.189 235.532ZM202.478 233.244C202.478 233.432 202.467 233.631 202.445 233.841H197.696C197.732 234.426 197.93 234.885 198.292 235.218C198.661 235.543 199.105 235.706 199.626 235.706C200.052 235.706 200.407 235.608 200.689 235.413C200.978 235.211 201.18 234.943 201.296 234.611H202.359C202.199 235.182 201.881 235.648 201.404 236.01C200.927 236.364 200.334 236.541 199.626 236.541C199.062 236.541 198.556 236.414 198.108 236.161C197.667 235.908 197.32 235.551 197.067 235.088C196.814 234.618 196.687 234.076 196.687 233.461C196.687 232.847 196.81 232.308 197.056 231.845C197.301 231.383 197.645 231.028 198.086 230.783C198.534 230.53 199.047 230.403 199.626 230.403C200.19 230.403 200.689 230.526 201.122 230.772C201.556 231.018 201.889 231.357 202.12 231.791C202.359 232.218 202.478 232.702 202.478 233.244ZM201.458 233.038C201.458 232.662 201.375 232.341 201.209 232.073C201.043 231.798 200.815 231.592 200.526 231.455C200.244 231.31 199.929 231.238 199.582 231.238C199.084 231.238 198.657 231.397 198.303 231.715C197.956 232.033 197.757 232.474 197.706 233.038H201.458ZM206.303 233.45C206.303 232.843 206.426 232.312 206.671 231.856C206.917 231.394 207.253 231.036 207.68 230.783C208.114 230.53 208.595 230.403 209.122 230.403C209.643 230.403 210.095 230.515 210.478 230.739C210.861 230.963 211.147 231.245 211.334 231.585V230.501H212.332V236.443H211.334V235.337C211.139 235.684 210.847 235.973 210.456 236.205C210.073 236.429 209.625 236.541 209.111 236.541C208.584 236.541 208.107 236.411 207.68 236.151C207.253 235.89 206.917 235.525 206.671 235.055C206.426 234.585 206.303 234.05 206.303 233.45ZM211.334 233.461C211.334 233.013 211.244 232.623 211.063 232.29C210.883 231.957 210.637 231.704 210.326 231.531C210.022 231.35 209.686 231.26 209.317 231.26C208.949 231.26 208.613 231.347 208.309 231.52C208.005 231.694 207.763 231.947 207.582 232.279C207.402 232.612 207.311 233.002 207.311 233.45C207.311 233.906 207.402 234.303 207.582 234.643C207.763 234.976 208.005 235.232 208.309 235.413C208.613 235.587 208.949 235.673 209.317 235.673C209.686 235.673 210.022 235.587 210.326 235.413C210.637 235.232 210.883 234.976 211.063 234.643C211.244 234.303 211.334 233.909 211.334 233.461ZM218.995 236.541C218.539 236.541 218.131 236.465 217.769 236.313C217.408 236.154 217.122 235.937 216.913 235.663C216.703 235.381 216.587 235.059 216.566 234.697H217.585C217.614 234.994 217.751 235.236 217.997 235.424C218.25 235.612 218.579 235.706 218.984 235.706C219.36 235.706 219.656 235.623 219.873 235.457C220.09 235.29 220.198 235.081 220.198 234.828C220.198 234.567 220.083 234.376 219.851 234.253C219.62 234.123 219.262 233.996 218.778 233.873C218.337 233.758 217.975 233.642 217.693 233.526C217.419 233.403 217.18 233.226 216.978 232.995C216.782 232.756 216.685 232.445 216.685 232.062C216.685 231.759 216.775 231.48 216.956 231.227C217.137 230.974 217.393 230.775 217.726 230.631C218.058 230.479 218.438 230.403 218.865 230.403C219.522 230.403 220.054 230.569 220.459 230.902C220.863 231.235 221.08 231.69 221.109 232.268H220.122C220.101 231.957 219.974 231.708 219.743 231.52C219.519 231.332 219.215 231.238 218.832 231.238C218.478 231.238 218.196 231.314 217.986 231.466C217.776 231.618 217.672 231.816 217.672 232.062C217.672 232.257 217.733 232.42 217.856 232.55C217.986 232.673 218.145 232.774 218.333 232.854C218.528 232.926 218.796 233.009 219.136 233.103C219.562 233.219 219.909 233.335 220.177 233.45C220.444 233.559 220.672 233.725 220.86 233.949C221.055 234.173 221.156 234.466 221.164 234.828C221.164 235.153 221.073 235.446 220.892 235.706C220.712 235.966 220.455 236.172 220.122 236.324C219.797 236.469 219.421 236.541 218.995 236.541ZM227.675 230.501L224.096 239.241H223.077L224.248 236.378L221.852 230.501H222.947L224.812 235.316L226.656 230.501H227.675ZM230.771 236.541C230.315 236.541 229.907 236.465 229.545 236.313C229.184 236.154 228.898 235.937 228.689 235.663C228.479 235.381 228.363 235.059 228.342 234.697H229.361C229.39 234.994 229.527 235.236 229.773 235.424C230.026 235.612 230.355 235.706 230.76 235.706C231.136 235.706 231.432 235.623 231.649 235.457C231.866 235.29 231.975 235.081 231.975 234.828C231.975 234.567 231.859 234.376 231.628 234.253C231.396 234.123 231.038 233.996 230.554 233.873C230.113 233.758 229.751 233.642 229.47 233.526C229.195 233.403 228.956 233.226 228.754 232.995C228.559 232.756 228.461 232.445 228.461 232.062C228.461 231.759 228.551 231.48 228.732 231.227C228.913 230.974 229.17 230.775 229.502 230.631C229.835 230.479 230.214 230.403 230.641 230.403C231.299 230.403 231.83 230.569 232.235 230.902C232.64 231.235 232.857 231.69 232.885 232.268H231.899C231.877 231.957 231.75 231.708 231.519 231.52C231.295 231.332 230.991 231.238 230.608 231.238C230.254 231.238 229.972 231.314 229.762 231.466C229.553 231.618 229.448 231.816 229.448 232.062C229.448 232.257 229.509 232.42 229.632 232.55C229.762 232.673 229.921 232.774 230.109 232.854C230.305 232.926 230.572 233.009 230.912 233.103C231.338 233.219 231.685 233.335 231.953 233.45C232.22 233.559 232.448 233.725 232.636 233.949C232.831 234.173 232.932 234.466 232.94 234.828C232.94 235.153 232.849 235.446 232.669 235.706C232.488 235.966 232.231 236.172 231.899 236.324C231.573 236.469 231.197 236.541 230.771 236.541ZM235.536 231.314V234.817C235.536 235.106 235.598 235.312 235.721 235.435C235.844 235.551 236.057 235.608 236.361 235.608H237.087V236.443H236.198C235.649 236.443 235.236 236.317 234.962 236.064C234.687 235.811 234.55 235.395 234.55 234.817V231.314H233.78V230.501H234.55V229.004H235.536V230.501H237.087V231.314H235.536ZM243.705 233.244C243.705 233.432 243.694 233.631 243.672 233.841H238.923C238.959 234.426 239.158 234.885 239.519 235.218C239.888 235.543 240.332 235.706 240.853 235.706C241.279 235.706 241.634 235.608 241.916 235.413C242.205 235.211 242.407 234.943 242.523 234.611H243.586C243.427 235.182 243.109 235.648 242.631 236.01C242.154 236.364 241.561 236.541 240.853 236.541C240.289 236.541 239.783 236.414 239.335 236.161C238.894 235.908 238.547 235.551 238.294 235.088C238.041 234.618 237.914 234.076 237.914 233.461C237.914 232.847 238.037 232.308 238.283 231.845C238.529 231.383 238.872 231.028 239.313 230.783C239.761 230.53 240.275 230.403 240.853 230.403C241.417 230.403 241.916 230.526 242.349 230.772C242.783 231.018 243.116 231.357 243.347 231.791C243.586 232.218 243.705 232.702 243.705 233.244ZM242.686 233.038C242.686 232.662 242.602 232.341 242.436 232.073C242.27 231.798 242.042 231.592 241.753 231.455C241.471 231.31 241.157 231.238 240.81 231.238C240.311 231.238 239.884 231.397 239.53 231.715C239.183 232.033 238.984 232.474 238.934 233.038H242.686ZM252.154 230.392C252.617 230.392 253.029 230.49 253.39 230.685C253.752 230.873 254.037 231.159 254.247 231.542C254.456 231.925 254.561 232.391 254.561 232.941V236.443H253.585V233.082C253.585 232.489 253.437 232.037 253.141 231.726C252.852 231.408 252.458 231.249 251.959 231.249C251.445 231.249 251.037 231.415 250.733 231.748C250.43 232.073 250.278 232.547 250.278 233.168V236.443H249.302V233.082C249.302 232.489 249.154 232.037 248.857 231.726C248.568 231.408 248.174 231.249 247.675 231.249C247.162 231.249 246.753 231.415 246.45 231.748C246.146 232.073 245.994 232.547 245.994 233.168V236.443H245.008V230.501H245.994V231.357C246.19 231.047 246.45 230.808 246.775 230.642C247.108 230.475 247.473 230.392 247.87 230.392C248.369 230.392 248.81 230.504 249.193 230.728C249.577 230.953 249.862 231.282 250.05 231.715C250.216 231.296 250.491 230.971 250.874 230.739C251.257 230.508 251.684 230.392 252.154 230.392ZM260.058 228.419V236.443H259.071V228.419H260.058ZM262.25 229.536C262.062 229.536 261.903 229.471 261.772 229.34C261.642 229.21 261.577 229.051 261.577 228.863C261.577 228.675 261.642 228.516 261.772 228.386C261.903 228.256 262.062 228.191 262.25 228.191C262.43 228.191 262.582 228.256 262.705 228.386C262.835 228.516 262.9 228.675 262.9 228.863C262.9 229.051 262.835 229.21 262.705 229.34C262.582 229.471 262.43 229.536 262.25 229.536ZM262.727 230.501V236.443H261.74V230.501H262.727ZM264.04 233.461C264.04 232.847 264.163 232.312 264.409 231.856C264.654 231.394 264.994 231.036 265.428 230.783C265.869 230.53 266.371 230.403 266.935 230.403C267.665 230.403 268.265 230.58 268.735 230.934C269.213 231.289 269.527 231.78 269.679 232.409H268.616C268.515 232.048 268.316 231.762 268.02 231.553C267.731 231.343 267.369 231.238 266.935 231.238C266.371 231.238 265.916 231.433 265.569 231.824C265.222 232.207 265.048 232.753 265.048 233.461C265.048 234.177 265.222 234.73 265.569 235.12C265.916 235.511 266.371 235.706 266.935 235.706C267.369 235.706 267.731 235.605 268.02 235.402C268.309 235.2 268.508 234.911 268.616 234.535H269.679C269.52 235.142 269.202 235.63 268.725 235.999C268.247 236.36 267.651 236.541 266.935 236.541C266.371 236.541 265.869 236.414 265.428 236.161C264.994 235.908 264.654 235.551 264.409 235.088C264.163 234.625 264.04 234.083 264.04 233.461ZM276.418 233.244C276.418 233.432 276.407 233.631 276.385 233.841H271.635C271.672 234.426 271.87 234.885 272.232 235.218C272.601 235.543 273.045 235.706 273.566 235.706C273.992 235.706 274.346 235.608 274.628 235.413C274.918 235.211 275.12 234.943 275.236 234.611H276.298C276.139 235.182 275.821 235.648 275.344 236.01C274.867 236.364 274.274 236.541 273.566 236.541C273.002 236.541 272.496 236.414 272.047 236.161C271.606 235.908 271.259 235.551 271.006 235.088C270.753 234.618 270.627 234.076 270.627 233.461C270.627 232.847 270.75 232.308 270.996 231.845C271.241 231.383 271.585 231.028 272.026 230.783C272.474 230.53 272.987 230.403 273.566 230.403C274.13 230.403 274.628 230.526 275.062 230.772C275.496 231.018 275.828 231.357 276.06 231.791C276.298 232.218 276.418 232.702 276.418 233.244ZM275.398 233.038C275.398 232.662 275.315 232.341 275.149 232.073C274.983 231.798 274.755 231.592 274.466 231.455C274.184 231.31 273.869 231.238 273.522 231.238C273.023 231.238 272.597 231.397 272.243 231.715C271.896 232.033 271.697 232.474 271.646 233.038H275.398ZM280.616 230.392C281.339 230.392 281.924 230.613 282.372 231.054C282.821 231.488 283.045 232.117 283.045 232.941V236.443H282.069V233.082C282.069 232.489 281.921 232.037 281.624 231.726C281.328 231.408 280.923 231.249 280.41 231.249C279.889 231.249 279.473 231.412 279.163 231.737C278.859 232.062 278.707 232.536 278.707 233.158V236.443H277.72V230.501H278.707V231.347C278.902 231.043 279.166 230.808 279.499 230.642C279.839 230.475 280.211 230.392 280.616 230.392ZM286.761 236.541C286.305 236.541 285.897 236.465 285.535 236.313C285.174 236.154 284.888 235.937 284.678 235.663C284.469 235.381 284.353 235.059 284.331 234.697H285.351C285.38 234.994 285.517 235.236 285.763 235.424C286.016 235.612 286.345 235.706 286.75 235.706C287.126 235.706 287.422 235.623 287.639 235.457C287.856 235.29 287.964 235.081 287.964 234.828C287.964 234.567 287.849 234.376 287.617 234.253C287.386 234.123 287.028 233.996 286.544 233.873C286.103 233.758 285.741 233.642 285.459 233.526C285.185 233.403 284.946 233.226 284.744 232.995C284.548 232.756 284.451 232.445 284.451 232.062C284.451 231.759 284.541 231.48 284.722 231.227C284.903 230.974 285.159 230.775 285.492 230.631C285.824 230.479 286.204 230.403 286.63 230.403C287.288 230.403 287.82 230.569 288.225 230.902C288.629 231.235 288.846 231.69 288.875 232.268H287.888C287.867 231.957 287.74 231.708 287.509 231.52C287.285 231.332 286.981 231.238 286.598 231.238C286.244 231.238 285.962 231.314 285.752 231.466C285.542 231.618 285.438 231.816 285.438 232.062C285.438 232.257 285.499 232.42 285.622 232.55C285.752 232.673 285.911 232.774 286.099 232.854C286.294 232.926 286.562 233.009 286.902 233.103C287.328 233.219 287.675 233.335 287.943 233.45C288.21 233.559 288.438 233.725 288.626 233.949C288.821 234.173 288.922 234.466 288.929 234.828C288.929 235.153 288.839 235.446 288.658 235.706C288.478 235.966 288.221 236.172 287.888 236.324C287.563 236.469 287.187 236.541 286.761 236.541ZM295.745 233.244C295.745 233.432 295.734 233.631 295.712 233.841H290.962C290.998 234.426 291.197 234.885 291.559 235.218C291.927 235.543 292.372 235.706 292.893 235.706C293.319 235.706 293.673 235.608 293.955 235.413C294.244 235.211 294.447 234.943 294.563 234.611H295.625C295.466 235.182 295.148 235.648 294.671 236.01C294.194 236.364 293.601 236.541 292.893 236.541C292.329 236.541 291.823 236.414 291.374 236.161C290.933 235.908 290.586 235.551 290.333 235.088C290.08 234.618 289.954 234.076 289.954 233.461C289.954 232.847 290.077 232.308 290.322 231.845C290.568 231.383 290.912 231.028 291.353 230.783C291.801 230.53 292.314 230.403 292.893 230.403C293.456 230.403 293.955 230.526 294.389 230.772C294.823 231.018 295.155 231.357 295.387 231.791C295.625 232.218 295.745 232.702 295.745 233.244ZM294.725 233.038C294.725 232.662 294.642 232.341 294.476 232.073C294.309 231.798 294.082 231.592 293.793 231.455C293.511 231.31 293.196 231.238 292.849 231.238C292.35 231.238 291.924 231.397 291.57 231.715C291.223 232.033 291.024 232.474 290.973 233.038H294.725Z" fill="black"/>
<defs>
<filter id="filter0_ddddd_228_5" x="7.43866e-05" y="4.25577e-05" width="381.855" height="353.055" filterUnits="userSpaceOnUse" color-interpolation-filters="sRGB">
<feFlood flood-opacity="0" result="BackgroundImageFix"/>
<feColorMatrix in="SourceAlpha" type="matrix" values="0 0 0 0 0 0 0 0 0 0 0 0 0 0 0 0 0 0 127 0" result="hardAlpha"/>
<feOffset dy="1.11566"/>
<feGaussianBlur stdDeviation="0.948313"/>
<feColorMatrix type="matrix" values="0 0 0 0 0.219608 0 0 0 0 0.219608 0 0 0 0 0.219608 0 0 0 0.0240741 0"/>
<feBlend mode="normal" in2="BackgroundImageFix" result="effect1_dropShadow_228_5"/>
<feColorMatrix in="SourceAlpha" type="matrix" values="0 0 0 0 0 0 0 0 0 0 0 0 0 0 0 0 0 0 127 0" result="hardAlpha"/>
<feOffset dy="4.90891"/>
<feGaussianBlur stdDeviation="1.96356"/>
<feColorMatrix type="matrix" values="0 0 0 0 0.219608 0 0 0 0 0.219608 0 0 0 0 0.219608 0 0 0 0.0392593 0"/>
<feBlend mode="normal" in2="effect1_dropShadow_228_5" result="effect2_dropShadow_228_5"/>
<feColorMatrix in="SourceAlpha" type="matrix" values="0 0 0 0 0 0 0 0 0 0 0 0 0 0 0 0 0 0 127 0" result="hardAlpha"/>
<feOffset dy="12.0491"/>
<feGaussianBlur stdDeviation="3.91597"/>
<feColorMatrix type="matrix" values="0 0 0 0 0.219608 0 0 0 0 0.219608 0 0 0 0 0.219608 0 0 0 0.05 0"/>
<feBlend mode="normal" in2="effect2_dropShadow_228_5" result="effect3_dropShadow_228_5"/>
<feColorMatrix in="SourceAlpha" type="matrix" values="0 0 0 0 0 0 0 0 0 0 0 0 0 0 0 0 0 0 127 0" result="hardAlpha"/>
<feOffset dy="23.2058"/>
<feGaussianBlur stdDeviation="7.67575"/>
<feColorMatrix type="matrix" values="0 0 0 0 0.219608 0 0 0 0 0.219608 0 0 0 0 0.219608 0 0 0 0.0607407 0"/>
<feBlend mode="normal" in2="effect3_dropShadow_228_5" result="effect4_dropShadow_228_5"/>
<feColorMatrix in="SourceAlpha" type="matrix" values="0 0 0 0 0 0 0 0 0 0 0 0 0 0 0 0 0 0 127 0" result="hardAlpha"/>
<feOffset dy="39.0482"/>
<feGaussianBlur stdDeviation="14.1131"/>
<feColorMatrix type="matrix" values="0 0 0 0 0.219608 0 0 0 0 0.219608 0 0 0 0 0.219608 0 0 0 0.0759259 0"/>
<feBlend mode="normal" in2="effect4_dropShadow_228_5" result="effect5_dropShadow_228_5"/>
<feBlend mode="normal" in="SourceGraphic" in2="effect5_dropShadow_228_5" result="shape"/>
</filter>
<filter id="filter1_dddddd_228_5" x="29.0297" y="214" width="324.393" height="144.223" filterUnits="userSpaceOnUse" color-interpolation-filters="sRGB">
<feFlood flood-opacity="0" result="BackgroundImageFix"/>
<feColorMatrix in="SourceAlpha" type="matrix" values="0 0 0 0 0 0 0 0 0 0 0 0 0 0 0 0 0 0 127 0" result="hardAlpha"/>
<feOffset dy="1.11566"/>
<feGaussianBlur stdDeviation="0.948313"/>
<feColorMatrix type="matrix" values="0 0 0 0 0.219608 0 0 0 0 0.219608 0 0 0 0 0.219608 0 0 0 0.0240741 0"/>
<feBlend mode="normal" in2="BackgroundImageFix" result="effect1_dropShadow_228_5"/>
<feColorMatrix in="SourceAlpha" type="matrix" values="0 0 0 0 0 0 0 0 0 0 0 0 0 0 0 0 0 0 127 0" result="hardAlpha"/>
<feOffset dy="4.90891"/>
<feGaussianBlur stdDeviation="1.96356"/>
<feColorMatrix type="matrix" values="0 0 0 0 0.219608 0 0 0 0 0.219608 0 0 0 0 0.219608 0 0 0 0.0392593 0"/>
<feBlend mode="normal" in2="effect1_dropShadow_228_5" result="effect2_dropShadow_228_5"/>
<feColorMatrix in="SourceAlpha" type="matrix" values="0 0 0 0 0 0 0 0 0 0 0 0 0 0 0 0 0 0 127 0" result="hardAlpha"/>
<feOffset dy="12.0491"/>
<feGaussianBlur stdDeviation="3.91597"/>
<feColorMatrix type="matrix" values="0 0 0 0 0.219608 0 0 0 0 0.219608 0 0 0 0 0.219608 0 0 0 0.05 0"/>
<feBlend mode="normal" in2="effect2_dropShadow_228_5" result="effect3_dropShadow_228_5"/>
<feColorMatrix in="SourceAlpha" type="matrix" values="0 0 0 0 0 0 0 0 0 0 0 0 0 0 0 0 0 0 127 0" result="hardAlpha"/>
<feOffset dy="23.2058"/>
<feGaussianBlur stdDeviation="7.67575"/>
<feColorMatrix type="matrix" values="0 0 0 0 0.219608 0 0 0 0 0.219608 0 0 0 0 0.219608 0 0 0 0.0607407 0"/>
<feBlend mode="normal" in2="effect3_dropShadow_228_5" result="effect4_dropShadow_228_5"/>
<feColorMatrix in="SourceAlpha" type="matrix" values="0 0 0 0 0 0 0 0 0 0 0 0 0 0 0 0 0 0 127 0" result="hardAlpha"/>
<feOffset dy="39.0482"/>
<feGaussianBlur stdDeviation="14.1131"/>
<feColorMatrix type="matrix" values="0 0 0 0 0.219608 0 0 0 0 0.219608 0 0 0 0 0.219608 0 0 0 0.0759259 0"/>
<feBlend mode="normal" in2="effect4_dropShadow_228_5" result="effect5_dropShadow_228_5"/>
<feColorMatrix in="SourceAlpha" type="matrix" values="0 0 0 0 0 0 0 0 0 0 0 0 0 0 0 0 0 0 127 0" result="hardAlpha"/>
<feOffset dy="60.2457"/>
<feGaussianBlur stdDeviation="24.0983"/>
<feColorMatrix type="matrix" values="0 0 0 0 0.219608 0 0 0 0 0.219608 0 0 0 0 0.219608 0 0 0 0.1 0"/>
<feBlend mode="normal" in2="effect5_dropShadow_228_5" result="effect6_dropShadow_228_5"/>
<feBlend mode="normal" in="SourceGraphic" in2="effect6_dropShadow_228_5" result="shape"/>
</filter>
</defs>
</svg>
