<svg width="264" height="215" viewBox="0 0 264 215" fill="none" xmlns="http://www.w3.org/2000/svg">
<path d="M165.633 0.577881H0.490234V214.607H165.633V0.577881Z" fill="#FAFAFA"/>
<path d="M18.8335 42.3576L75.1062 42.4626C75.5421 42.4649 75.9741 42.381 76.3775 42.2158C76.7809 42.0506 77.1476 41.8073 77.4567 41.4999C77.7657 41.1925 78.0109 40.827 78.1783 40.4245C78.3456 40.022 78.4318 39.5904 78.4318 39.1545C78.4341 38.7186 78.3502 38.2865 78.185 37.8832C78.0198 37.4798 77.7765 37.113 77.469 36.804C77.1616 36.495 76.7962 36.2497 76.3937 36.0824C75.9912 35.915 75.5596 35.8289 75.1237 35.8289L18.851 35.7239C17.972 35.7239 17.1288 36.0718 16.5056 36.6917C15.8824 37.3116 15.53 38.153 15.5254 39.032C15.5254 39.911 15.8733 40.7542 16.4932 41.3774C17.1131 42.0005 17.9545 42.353 18.8335 42.3576Z" fill="#E0E0E0"/>
<path d="M18.9209 55.1877L75.1936 55.2927C75.6295 55.295 76.0615 55.2111 76.4649 55.0459C76.8683 54.8807 77.235 54.6374 77.5441 54.33C77.8531 54.0225 78.0984 53.6571 78.2657 53.2546C78.433 52.8521 78.5192 52.4205 78.5192 51.9846C78.5192 51.1056 78.1712 50.2624 77.5513 49.6392C76.9314 49.016 76.09 48.6636 75.2111 48.659L18.9384 48.554C18.5017 48.554 18.0692 48.64 17.6657 48.8071C17.2623 48.9742 16.8957 49.2192 16.5868 49.528C16.278 49.8368 16.0331 50.2034 15.8659 50.6069C15.6988 51.0104 15.6128 51.4428 15.6128 51.8796C15.6128 52.7569 15.9613 53.5984 16.5817 54.2187C17.2021 54.8391 18.0435 55.1877 18.9209 55.1877Z" fill="#E0E0E0"/>
<path d="M19.0083 68.0348L75.281 68.1398C76.1599 68.1352 77.0013 67.7827 77.6212 67.1596C78.2411 66.5364 78.5891 65.6932 78.5891 64.8142C78.5891 63.9352 78.2411 63.092 77.6212 62.4688C77.0013 61.8456 76.1599 61.4932 75.281 61.4886H19.0083C18.1386 61.4839 17.3024 61.8237 16.6825 62.4338C16.0626 63.0438 15.7094 63.8745 15.7002 64.7442C15.7094 65.6171 16.0614 66.4514 16.6803 67.067C17.2992 67.6826 18.1354 68.0302 19.0083 68.0348Z" fill="#E0E0E0"/>
<path d="M19.0784 80.8647L75.351 80.9697C76.23 80.9697 77.0733 80.6218 77.6964 80.0019C78.3196 79.382 78.672 78.5406 78.6766 77.6616C78.6789 77.2257 78.5951 76.7937 78.4299 76.3903C78.2646 75.9869 78.0213 75.6202 77.7139 75.3111C77.4065 75.0021 77.041 74.7568 76.6385 74.5895C76.236 74.4222 75.8044 74.336 75.3685 74.336L19.0959 74.231C18.66 74.2287 18.2279 74.3126 17.8245 74.4778C17.4212 74.643 17.0544 74.8863 16.7454 75.1937C16.4363 75.5011 16.1911 75.8666 16.0237 76.2691C15.8564 76.6716 15.7703 77.1032 15.7703 77.5391C15.7703 78.4181 16.1182 79.2613 16.7381 79.8845C17.358 80.5077 18.1994 80.8601 19.0784 80.8647Z" fill="#E0E0E0"/>
<path d="M19.1661 93.6945L75.4387 93.7995C76.3177 93.7995 77.1609 93.4516 77.7841 92.8317C78.4073 92.2118 78.7597 91.3704 78.7643 90.4914C78.7643 89.6124 78.4164 88.7692 77.7965 88.146C77.1766 87.5228 76.3352 87.1704 75.4562 87.1658L19.1836 87.0608C18.3046 87.0608 17.4613 87.4087 16.8382 88.0286C16.215 88.6485 15.8626 89.4899 15.858 90.3689C15.8557 90.8048 15.9395 91.2368 16.1047 91.6402C16.2699 92.0436 16.5133 92.4104 16.8207 92.7194C17.1281 93.0284 17.4935 93.2737 17.896 93.441C18.2986 93.6084 18.7302 93.6945 19.1661 93.6945Z" fill="#E0E0E0"/>
<path d="M19.3407 106.525L75.5959 106.63C76.0319 106.623 76.4622 106.53 76.8621 106.356C77.262 106.182 77.6236 105.931 77.9261 105.617C78.2287 105.304 78.4662 104.933 78.625 104.527C78.7838 104.121 78.8608 103.687 78.8515 103.251C78.8561 102.815 78.7739 102.382 78.6095 101.977C78.4451 101.573 78.2019 101.205 77.894 100.896C77.5861 100.586 77.2197 100.341 76.8162 100.175C76.4126 100.008 75.98 99.9235 75.5434 99.9259L19.3407 99.8909C18.4632 99.8954 17.6226 100.245 17.0004 100.864C16.3782 101.483 16.0243 102.321 16.0151 103.199C16.0151 104.081 16.3655 104.927 16.9892 105.551C17.6129 106.174 18.4587 106.525 19.3407 106.525Z" fill="#E0E0E0"/>
<path d="M19.3407 119.371H75.6134C76.05 119.376 76.4831 119.294 76.8875 119.129C77.2919 118.965 77.6596 118.722 77.9691 118.414C78.2786 118.106 78.5238 117.74 78.6903 117.336C78.8568 116.933 78.9414 116.5 78.939 116.063C78.9345 115.186 78.585 114.345 77.9661 113.723C77.3472 113.101 76.5085 112.747 75.6309 112.738L19.3407 112.72C18.4587 112.72 17.6129 113.071 16.9892 113.694C16.3655 114.318 16.0151 115.164 16.0151 116.046C16.0197 116.926 16.3716 117.77 16.9943 118.392C17.6169 119.015 18.4602 119.367 19.3407 119.371Z" fill="#E0E0E0"/>
<path d="M90.5265 106.525L146.782 106.63C147.218 106.632 147.65 106.548 148.053 106.383C148.456 106.218 148.823 105.974 149.132 105.667C149.441 105.359 149.686 104.994 149.854 104.591C150.021 104.189 150.107 103.757 150.107 103.321C150.112 102.885 150.03 102.452 149.865 102.047C149.701 101.643 149.458 101.275 149.15 100.966C148.842 100.656 148.476 100.411 148.072 100.245C147.668 100.078 147.236 99.9935 146.799 99.9959L90.5265 99.8909C89.649 99.8954 88.8084 100.245 88.1862 100.864C87.564 101.483 87.2101 102.321 87.2009 103.199C87.2009 104.081 87.5513 104.927 88.175 105.551C88.7987 106.174 89.6445 106.525 90.5265 106.525Z" fill="#E0E0E0"/>
<path d="M90.5964 119.372H146.869C147.306 119.376 147.739 119.294 148.143 119.13C148.548 118.965 148.915 118.722 149.225 118.414C149.534 118.106 149.779 117.74 149.946 117.336C150.113 116.933 150.197 116.5 150.195 116.063C150.19 115.186 149.841 114.345 149.222 113.723C148.603 113.101 147.764 112.747 146.887 112.738L90.6139 112.65C90.1774 112.646 89.7443 112.728 89.3399 112.892C88.9354 113.057 88.5677 113.3 88.2582 113.608C87.9487 113.916 87.7036 114.282 87.5371 114.686C87.3705 115.089 87.286 115.522 87.2883 115.958C87.2791 116.4 87.3575 116.84 87.5192 117.251C87.6808 117.663 87.9225 118.038 88.2301 118.355C88.5378 118.673 88.9053 118.926 89.3115 119.1C89.7177 119.275 90.1544 119.367 90.5964 119.372Z" fill="#E0E0E0"/>
<path d="M90.6839 132.902L146.957 133.007C147.836 133.007 148.679 132.659 149.302 132.039C149.925 131.419 150.278 130.577 150.282 129.699C150.282 128.82 149.934 127.976 149.314 127.353C148.694 126.73 147.853 126.378 146.974 126.373L90.7014 126.268C90.2655 126.266 89.8334 126.349 89.43 126.515C89.0267 126.68 88.6599 126.923 88.3509 127.231C88.0418 127.538 87.7966 127.903 87.6292 128.306C87.4619 128.708 87.3758 129.14 87.3758 129.576C87.3735 130.012 87.4573 130.444 87.6225 130.847C87.7878 131.251 88.0311 131.617 88.3385 131.926C88.6459 132.236 89.0114 132.481 89.4139 132.648C89.8164 132.815 90.248 132.902 90.6839 132.902Z" fill="#E0E0E0"/>
<path d="M90.7715 146.432L147.044 146.537C147.48 146.539 147.912 146.455 148.316 146.29C148.719 146.125 149.086 145.882 149.395 145.574C149.704 145.267 149.949 144.901 150.116 144.499C150.284 144.096 150.37 143.665 150.37 143.229C150.37 142.35 150.022 141.506 149.402 140.883C148.782 140.26 147.941 139.908 147.062 139.903L90.789 139.798C89.91 139.798 89.0668 140.146 88.4436 140.766C87.8205 141.386 87.4681 142.227 87.4634 143.106C87.4611 143.542 87.545 143.974 87.7102 144.378C87.8754 144.781 88.1187 145.148 88.4261 145.457C88.7335 145.766 89.099 146.011 89.5015 146.178C89.904 146.346 90.3356 146.432 90.7715 146.432Z" fill="#E0E0E0"/>
<path d="M90.8589 159.962L147.132 160.067C148.011 160.067 148.854 159.719 149.477 159.099C150.1 158.479 150.453 157.638 150.457 156.759C150.457 155.877 150.107 155.031 149.483 154.407C148.859 153.784 148.014 153.433 147.132 153.433L90.8764 153.328C89.9944 153.328 89.1485 153.679 88.5248 154.302C87.9012 154.926 87.5508 155.772 87.5508 156.654C87.5508 157.531 87.8993 158.373 88.5197 158.993C89.1401 159.613 89.9815 159.962 90.8589 159.962Z" fill="#E0E0E0"/>
<path d="M90.9462 173.509L147.219 173.614C148.099 173.609 148.943 173.257 149.565 172.635C150.188 172.012 150.54 171.169 150.545 170.288C150.54 169.409 150.187 168.568 149.564 167.948C148.941 167.328 148.098 166.98 147.219 166.98L90.9637 166.875C90.5272 166.871 90.0941 166.953 89.6897 167.117C89.2852 167.282 88.9175 167.525 88.608 167.833C88.2985 168.141 88.0534 168.507 87.8868 168.911C87.7203 169.314 87.6358 169.747 87.6381 170.183C87.6335 170.62 87.7157 171.053 87.8801 171.457C88.0445 171.862 88.2877 172.229 88.5956 172.539C88.9035 172.848 89.2699 173.094 89.6734 173.26C90.077 173.427 90.5097 173.511 90.9462 173.509Z" fill="#E0E0E0"/>
<path d="M91.1041 187.039L147.377 187.144C147.811 187.135 148.24 187.04 148.638 186.866C149.035 186.691 149.395 186.439 149.696 186.126C149.996 185.812 150.232 185.442 150.39 185.037C150.548 184.632 150.624 184.2 150.615 183.766C150.62 183.329 150.537 182.896 150.373 182.492C150.209 182.087 149.965 181.72 149.657 181.41C149.35 181.101 148.983 180.856 148.58 180.689C148.176 180.522 147.743 180.438 147.307 180.44L91.1041 180.405C90.6594 180.396 90.2173 180.476 89.8043 180.641C89.3913 180.807 89.016 181.054 88.7006 181.367C88.3852 181.681 88.1364 182.055 87.9689 182.467C87.8015 182.879 87.7189 183.321 87.726 183.766C87.7282 184.204 87.8178 184.637 87.9897 185.04C88.1615 185.443 88.4121 185.808 88.7268 186.113C89.0414 186.418 89.4138 186.657 89.822 186.816C90.2303 186.975 90.6662 187.051 91.1041 187.039Z" fill="#E0E0E0"/>
<path d="M18.5533 200.937L146.466 201.164C146.902 201.166 147.334 201.083 147.738 200.917C148.141 200.752 148.508 200.509 148.817 200.201C149.126 199.894 149.371 199.528 149.539 199.126C149.706 198.723 149.792 198.292 149.792 197.856C149.794 197.42 149.71 196.988 149.545 196.585C149.38 196.181 149.137 195.814 148.829 195.505C148.522 195.196 148.156 194.951 147.754 194.784C147.351 194.617 146.92 194.53 146.484 194.53L18.5533 194.268C18.2613 194.268 17.9723 194.325 17.7026 194.437C17.4329 194.549 17.1878 194.712 16.9814 194.919C16.775 195.125 16.6113 195.37 16.4996 195.64C16.3879 195.91 16.3304 196.199 16.3304 196.491V198.679C16.3257 198.973 16.3798 199.266 16.4894 199.54C16.599 199.814 16.762 200.063 16.9689 200.273C17.1758 200.483 17.4224 200.65 17.6944 200.764C17.9664 200.878 18.2584 200.937 18.5533 200.937Z" fill="#E0E0E0"/>
<path d="M18.746 25.6425H55.9752C56.4111 25.6448 56.8432 25.5609 57.2466 25.3957C57.65 25.2305 58.0167 24.9872 58.3258 24.6798C58.6348 24.3724 58.88 24.0069 59.0474 23.6044C59.2147 23.2019 59.3009 22.7703 59.3009 22.3344C59.3009 21.4554 58.9529 20.6122 58.333 19.989C57.7131 19.3658 56.8717 19.0134 55.9928 19.0088H18.746C17.8684 19.0133 17.0278 19.3628 16.4057 19.9817C15.7835 20.6006 15.4296 21.4393 15.4204 22.3169C15.4204 23.1989 15.7708 24.0448 16.3945 24.6684C17.0181 25.2921 17.864 25.6425 18.746 25.6425Z" fill="#E0E0E0"/>
<path d="M60.7431 132.668L32.9481 132.62C26.2877 132.608 20.879 137.998 20.8674 144.658L20.827 167.78C20.8154 174.44 26.2053 179.849 32.8656 179.861L60.6606 179.909C67.321 179.921 72.7297 174.531 72.7413 167.871L72.7817 144.749C72.7933 138.089 67.4034 132.68 60.7431 132.668Z" fill="#1960AB"/>
<g opacity="0.3">
<path d="M20.811 168.836C20.8124 168.637 20.8606 168.442 20.9519 168.265C21.0431 168.089 21.1748 167.936 21.3361 167.821L35.9863 155.761C37.2815 154.676 39.0493 153.853 42.4975 155.988L50.5314 159.874C50.7692 159.994 51.0396 160.034 51.3018 159.986C51.5639 159.939 51.8035 159.807 51.9842 159.612L63.3437 147.902C63.7007 147.562 64.1236 147.299 64.5863 147.129C65.0489 146.959 65.5415 146.886 66.0336 146.914C66.5257 146.942 67.0069 147.07 67.4474 147.291C67.8879 147.512 68.2783 147.821 68.5947 148.199L72.4629 152.785C72.6545 153.01 72.76 153.295 72.7604 153.59V172.546C72.6768 174.518 71.8479 176.385 70.441 177.769C69.0342 179.153 67.1544 179.951 65.1816 180.003H28.6525C27.6113 179.994 26.5823 179.779 25.6246 179.37C24.6669 178.962 23.7994 178.368 23.0722 177.623C22.345 176.878 21.7724 175.996 21.3873 175.029C21.0022 174.061 20.8123 173.027 20.8285 171.986L20.811 168.836Z" fill="black"/>
</g>
<g opacity="0.3">
<path d="M45.2456 144.874C45.3199 145.912 45.0841 146.948 44.5682 147.852C44.0524 148.755 43.2797 149.485 42.3482 149.949C41.4168 150.413 40.3685 150.589 39.3365 150.456C38.3046 150.323 37.3354 149.887 36.552 149.202C35.7686 148.517 35.2064 147.615 34.9366 146.61C34.6669 145.605 34.7017 144.543 35.0368 143.557C35.3719 142.572 35.9922 141.709 36.8188 141.077C37.6454 140.445 38.6411 140.073 39.6796 140.008C41.0615 139.921 42.4216 140.384 43.464 141.295C44.5065 142.207 45.1468 143.493 45.2456 144.874Z" fill="black"/>
</g>
<path d="M146.502 60.8412C146.563 66.2185 145.03 71.4935 142.097 76.0005C139.163 80.5074 134.96 84.0444 130.018 86.1648C125.076 88.2853 119.617 88.8943 114.329 87.9149C109.041 86.9355 104.162 84.4117 100.308 80.6619C96.453 76.9122 93.7956 72.1046 92.6707 66.8459C91.5458 61.5872 92.004 56.1131 93.9873 51.1146C95.9707 46.116 99.3903 41.817 103.815 38.7602C108.239 35.7033 113.47 34.0256 118.847 33.9388C126.08 33.8453 133.054 36.6256 138.239 41.6695C143.424 46.7133 146.396 53.6084 146.502 60.8412ZM106.244 61.4888C106.296 64.0592 107.108 66.5567 108.577 68.6666C110.046 70.7765 112.107 72.4043 114.5 73.3449C116.893 74.2855 119.51 74.4967 122.023 73.9521C124.535 73.4075 126.83 72.1313 128.619 70.2844C130.407 68.4375 131.609 66.1025 132.073 63.5737C132.537 61.0449 132.241 58.4355 131.224 56.0742C130.207 53.7129 128.514 51.7055 126.358 50.305C124.202 48.9044 121.68 48.1733 119.109 48.2039C115.648 48.2683 112.353 49.7032 109.948 52.1936C107.542 54.6841 106.223 58.0269 106.279 61.4888H106.244Z" fill="#E0E0E0"/>
<path d="M146.501 60.8412C146.628 68.0743 143.879 75.062 138.858 80.27C133.837 85.478 126.954 88.4807 119.721 88.6187L119.494 74.3536C122.962 74.3026 126.267 72.8761 128.683 70.3879C131.099 67.8998 132.427 64.5539 132.376 61.0862C132.325 57.6186 130.899 54.3132 128.411 51.8973C125.922 49.4814 122.576 48.1528 119.109 48.2039L118.864 33.9388C126.094 33.85 133.064 36.6324 138.245 41.6757C143.426 46.7191 146.395 53.6115 146.501 60.8412Z" fill="#455A64"/>
<path d="M122.172 90.8066C118.036 90.9068 113.921 90.1802 110.069 88.6695C106.218 87.1588 102.706 84.8944 99.7407 82.0089C96.7754 79.1235 94.4159 75.6751 92.8007 71.8659C91.1854 68.0568 90.3467 63.9635 90.334 59.826L106.944 59.4934C107.085 67.9299 113.491 73.2334 121.892 73.0934L122.172 90.8066Z" fill="#1960AB"/>
<path d="M263.862 108.496H125.509V207.447H263.862V108.496Z" fill="white"/>
<path d="M166.218 123.758H141.446C140.862 123.758 140.302 123.99 139.889 124.403C139.476 124.816 139.244 125.376 139.244 125.96C139.244 126.545 139.476 127.107 139.888 127.522C140.301 127.937 140.861 128.172 141.446 128.176H166.218C166.806 128.176 167.37 127.942 167.785 127.527C168.201 127.111 168.434 126.547 168.434 125.96C168.431 125.375 168.195 124.814 167.78 124.402C167.365 123.989 166.804 123.758 166.218 123.758Z" fill="#E0E0E0"/>
<path d="M152.608 192.859H141.46C140.876 192.859 140.316 193.091 139.903 193.504C139.49 193.917 139.258 194.477 139.258 195.061C139.258 195.646 139.49 196.207 139.902 196.623C140.315 197.038 140.875 197.273 141.46 197.276H152.608C153.192 197.276 153.752 197.044 154.165 196.631C154.578 196.218 154.81 195.658 154.81 195.074C154.81 194.489 154.578 193.928 154.165 193.512C153.753 193.097 153.193 192.862 152.608 192.859Z" fill="#E0E0E0"/>
<path d="M176.402 192.859H165.255C164.671 192.859 164.111 193.091 163.698 193.504C163.285 193.917 163.053 194.477 163.053 195.061C163.053 195.646 163.284 196.207 163.697 196.623C164.109 197.038 164.669 197.273 165.255 197.276H176.402C176.986 197.276 177.546 197.044 177.959 196.631C178.372 196.218 178.604 195.658 178.604 195.074C178.606 194.784 178.55 194.496 178.441 194.227C178.331 193.959 178.169 193.714 177.964 193.508C177.759 193.303 177.516 193.139 177.248 193.028C176.98 192.916 176.693 192.859 176.402 192.859Z" fill="#E0E0E0"/>
<path d="M200.253 192.859H189.119C188.534 192.859 187.972 193.09 187.557 193.503C187.142 193.915 186.907 194.475 186.903 195.061C186.903 195.646 187.135 196.207 187.547 196.623C187.96 197.038 188.52 197.273 189.105 197.276H200.253C200.838 197.276 201.399 197.045 201.814 196.632C202.23 196.22 202.465 195.66 202.468 195.074C202.468 194.487 202.235 193.923 201.819 193.508C201.404 193.092 200.84 192.859 200.253 192.859Z" fill="#E0E0E0"/>
<path d="M224.075 192.859H212.942C212.356 192.859 211.795 193.09 211.38 193.503C210.965 193.915 210.729 194.475 210.726 195.061C210.726 195.648 210.959 196.212 211.375 196.627C211.79 197.043 212.354 197.276 212.942 197.276H224.075C224.661 197.276 225.222 197.045 225.637 196.632C226.052 196.22 226.287 195.66 226.291 195.074C226.291 194.487 226.058 193.923 225.642 193.508C225.227 193.092 224.663 192.859 224.075 192.859Z" fill="#E0E0E0"/>
<path d="M247.967 192.859H236.833C236.248 192.859 235.686 193.09 235.271 193.503C234.856 193.915 234.621 194.475 234.617 195.061C234.617 195.648 234.851 196.212 235.266 196.627C235.682 197.043 236.245 197.276 236.833 197.276H247.967C248.552 197.276 249.113 197.045 249.529 196.632C249.944 196.22 250.179 195.66 250.182 195.074C250.182 194.487 249.949 193.923 249.533 193.508C249.118 193.092 248.554 192.859 247.967 192.859Z" fill="#E0E0E0"/>
<path d="M224.075 192.859H212.942C212.356 192.859 211.795 193.09 211.38 193.503C210.965 193.915 210.729 194.475 210.726 195.061C210.726 195.648 210.959 196.212 211.375 196.627C211.79 197.043 212.354 197.276 212.942 197.276H224.075C224.661 197.276 225.222 197.045 225.637 196.632C226.052 196.22 226.287 195.66 226.291 195.074C226.291 194.487 226.058 193.923 225.642 193.508C225.227 193.092 224.663 192.859 224.075 192.859Z" fill="#E0E0E0"/>
<path d="M148.437 137.424H142.63V186.913H148.437V137.424Z" fill="#1960AB"/>
<path d="M159.654 154.228H153.846V186.9H159.654V154.228Z" fill="#1960AB"/>
<path d="M170.856 143.576H165.049V187.161H170.856V143.576Z" fill="#1960AB"/>
<path d="M182.073 139.337H176.265V186.913H182.073V139.337Z" fill="#1960AB"/>
<path d="M193.275 155.246H187.467V186.914H193.275V155.246Z" fill="#1960AB"/>
<path d="M204.492 161.453H198.684V186.914H204.492V161.453Z" fill="#1960AB"/>
<path d="M215.694 142.502H209.886V186.914H215.694V142.502Z" fill="#1960AB"/>
<path d="M226.911 150.512H221.103V186.913H226.911V150.512Z" fill="#1960AB"/>
<path d="M238.127 144.113H232.319V186.914H238.127V144.113Z" fill="#1960AB"/>
<path d="M249.329 157.751H243.522V186.913H249.329V157.751Z" fill="#1960AB"/>
<g opacity="0.3">
<path d="M159.654 154.228H153.846V186.9H159.654V154.228Z" fill="white"/>
</g>
<g opacity="0.3">
<path d="M182.073 139.337H176.265V186.913H182.073V139.337Z" fill="white"/>
</g>
<g opacity="0.3">
<path d="M204.492 161.453H198.684V186.914H204.492V161.453Z" fill="white"/>
</g>
<g opacity="0.3">
<path d="M226.911 150.512H221.103V186.913H226.911V150.512Z" fill="white"/>
</g>
<g opacity="0.3">
<path d="M249.329 157.751H243.522V186.913H249.329V157.751Z" fill="white"/>
</g>
<path d="M136.643 139.337C136.643 139.337 136.643 139.406 136.643 139.557V140.218C136.643 140.809 136.643 141.677 136.643 142.791C136.643 145.048 136.643 148.296 136.643 152.521C136.643 160.903 136.643 172.862 136.643 187.161L136.505 186.996H175.04H231.314H248.366L231.452 187.299H175.178H136.643H136.492V187.134C136.492 172.835 136.492 160.875 136.492 152.494C136.492 148.365 136.492 145.021 136.492 142.764C136.492 141.649 136.492 140.782 136.492 140.19C136.492 139.915 136.492 139.695 136.492 139.53C136.536 139.461 136.587 139.396 136.643 139.337Z" fill="#263238"/>
</svg>
