<svg width="382" height="354" viewBox="0 0 382 354" fill="none" xmlns="http://www.w3.org/2000/svg">
<g filter="url(#filter0_ddddd_228_443)">
<rect x="28.2263" y="0.781006" width="325.402" height="285" fill="white"/>
<rect x="28.5275" y="1.08223" width="324.8" height="284.398" stroke="#F1F1F1" stroke-width="0.602457"/>
</g>
<rect x="60.2263" y="163.781" width="175" height="11" rx="5.5" fill="#F1F1F1"/>
<rect x="60.2263" y="138.781" width="261" height="11" rx="5.5" fill="#F1F1F1"/>
<rect x="60.2263" y="189.781" width="158" height="11" rx="5.5" fill="#F1F1F1"/>
<rect x="60.2263" y="215.781" width="154" height="11" rx="5.5" fill="#F1F1F1"/>
<rect x="60.2263" y="242.781" width="158" height="11" rx="5.5" fill="#F1F1F1"/>
<rect x="146.226" y="34.781" width="175.241" height="10.9195" rx="5.45977" fill="#F1F1F1"/>
<rect x="162.9" y="60.988" width="158.552" height="10.9195" rx="5.45977" fill="#F1F1F1"/>
<rect x="167.068" y="87.1948" width="154" height="10.9195" rx="5.45977" fill="#F1F1F1"/>
<rect x="162.9" y="113.402" width="158.552" height="10.9195" rx="5.45977" fill="#F1F1F1"/>
<path d="M151.39 83.2974V74.2647C151.39 73.0669 150.914 71.9181 150.067 71.0712C149.22 70.2242 148.071 69.7483 146.874 69.7483H144.505C143.544 69.7296 142.613 69.4127 141.841 68.8415C141.068 68.2703 140.492 67.4731 140.193 66.5601C139.807 65.4829 139.372 64.4302 138.888 63.402C138.454 62.5445 138.297 61.5733 138.439 60.6228C138.581 59.6722 139.015 58.7893 139.681 58.0961L141.354 56.4234C142.199 55.5766 142.674 54.4287 142.674 53.2318C142.674 52.035 142.199 50.8871 141.354 50.0403L134.964 43.6504C134.117 42.8037 132.968 42.328 131.771 42.328C130.573 42.328 129.424 42.8037 128.577 43.6504L126.905 45.3232C126.212 45.9893 125.331 46.424 124.381 46.5672C123.431 46.7105 122.46 46.5552 121.602 46.1227C120.574 45.6388 119.52 45.2027 118.441 44.8147C117.528 44.5144 116.731 43.9377 116.16 43.1645C115.59 42.3913 115.274 41.4598 115.256 40.499V38.1338C115.256 37.5407 115.139 36.9534 114.912 36.4055C114.685 35.8575 114.352 35.3596 113.933 34.9402C113.514 34.5209 113.016 34.1882 112.468 33.9612C111.92 33.7343 111.333 33.6174 110.739 33.6174H101.707C100.509 33.6174 99.3601 34.0933 98.5131 34.9402C97.6661 35.7872 97.1903 36.936 97.1903 38.1338V40.5024C97.1716 41.463 96.8547 42.3941 96.2835 43.1667C95.7123 43.9392 94.915 44.5152 94.0021 44.8147C92.9249 45.2005 91.8722 45.6354 90.844 46.1194C89.9869 46.5527 89.0163 46.7091 88.0665 46.5671C87.1166 46.425 86.2343 45.9916 85.5414 45.3265L83.8721 43.6538C83.4526 43.234 82.9546 42.901 82.4064 42.6738C81.8582 42.4466 81.2706 42.3296 80.6771 42.3296C80.0837 42.3296 79.4961 42.4466 78.9479 42.6738C78.3997 42.901 77.9017 43.234 77.4822 43.6538L71.0991 50.0436C70.2523 50.8906 69.7766 52.0392 69.7766 53.2368C69.7766 54.4345 70.2523 55.5831 71.0991 56.4301L72.7718 58.1028C73.4374 58.7953 73.8715 59.6775 74.0141 60.6273C74.1568 61.5772 74.0009 62.5479 73.5681 63.4054C73.0863 64.4335 72.6514 65.4862 72.2633 66.5635C71.9636 67.4769 71.3872 68.2746 70.614 68.8458C69.8407 69.4171 68.9089 69.7336 67.9477 69.7517H65.5791C64.3813 69.7517 63.2325 70.2275 62.3856 71.0745C61.5386 71.9215 61.0627 73.0702 61.0627 74.268V83.3008C61.0627 84.4986 61.5386 85.6473 62.3856 86.4943C63.2325 87.3413 64.3813 87.8171 65.5791 87.8171H67.9477C68.9083 87.8359 69.8394 88.1528 70.612 88.724C71.3846 89.2952 71.9605 90.0924 72.26 91.0054C72.6458 92.0826 73.0807 93.1353 73.5647 94.1635C73.998 95.0206 74.1544 95.9911 74.0124 96.941C73.8703 97.8908 73.4369 98.7731 72.7718 99.466L71.0991 101.139C70.2533 101.986 69.7783 103.133 69.7783 104.33C69.7783 105.527 70.2533 106.675 71.0991 107.522L77.4889 113.912C78.3357 114.757 79.4837 115.233 80.6805 115.233C81.8773 115.233 83.0252 114.757 83.8721 113.912L85.5481 112.239C86.2407 111.572 87.1234 111.137 88.0741 110.995C89.0248 110.852 89.9963 111.009 90.854 111.443C91.88 111.924 92.9327 112.359 94.0121 112.747C94.925 113.048 95.7219 113.624 96.2925 114.398C96.8631 115.171 97.1792 116.102 97.197 117.063V119.428C97.197 120.021 97.3138 120.609 97.5408 121.157C97.7678 121.705 98.1004 122.203 98.5198 122.622C98.9392 123.041 99.4371 123.374 99.985 123.601C100.533 123.828 101.12 123.945 101.713 123.945H110.746C111.339 123.945 111.926 123.828 112.474 123.601C113.022 123.374 113.52 123.041 113.94 122.622C114.359 122.203 114.692 121.705 114.919 121.157C115.146 120.609 115.262 120.021 115.262 119.428V117.06C115.281 116.1 115.597 115.169 116.168 114.396C116.738 113.624 117.535 113.048 118.447 112.747C119.527 112.362 120.581 111.927 121.609 111.443C122.467 111.009 123.438 110.853 124.389 110.995C125.339 111.138 126.222 111.573 126.915 112.239L128.584 113.912C129.003 114.331 129.502 114.664 130.05 114.892C130.598 115.119 131.186 115.236 131.779 115.236C132.372 115.236 132.96 115.119 133.508 114.892C134.056 114.664 134.554 114.331 134.974 113.912L141.36 107.522C142.207 106.675 142.683 105.526 142.683 104.329C142.683 103.131 142.207 101.982 141.36 101.135L139.688 99.4627C139.022 98.7701 138.588 97.888 138.445 96.9382C138.303 95.9883 138.459 95.0176 138.891 94.1601C139.373 93.132 139.808 92.0792 140.196 91.002C140.496 90.0885 141.072 89.2909 141.846 88.7197C142.619 88.1484 143.551 87.8318 144.512 87.8138H146.877C148.075 87.8138 149.224 87.338 150.071 86.491C150.918 85.644 151.39 84.4952 151.39 83.2974Z" fill="#55A4F9"/>
<path d="M106.226 108.89C122.855 108.89 136.335 95.4098 136.335 78.781C136.335 62.1522 122.855 48.6719 106.226 48.6719C89.5975 48.6719 76.1172 62.1522 76.1172 78.781C76.1172 95.4098 89.5975 108.89 106.226 108.89Z" fill="#8DD1FF"/>
<path d="M106.226 105.545C121.007 105.545 132.99 93.5621 132.99 78.781C132.99 63.9998 121.007 52.0173 106.226 52.0173C91.4451 52.0173 79.4626 63.9998 79.4626 78.781C79.4626 93.5621 91.4451 105.545 106.226 105.545Z" fill="white"/>
<path d="M109.572 84.6356C109.242 84.6358 108.916 84.5709 108.612 84.4446C108.307 84.3183 108.031 84.1331 107.799 83.8996L104.453 80.5541C103.983 80.084 103.718 79.4463 103.717 78.781V72.0901C103.717 71.4247 103.982 70.7865 104.452 70.3159C104.923 69.8454 105.561 69.581 106.226 69.581C106.892 69.581 107.53 69.8454 108.001 70.3159C108.471 70.7865 108.735 71.4247 108.735 72.0901V77.7439L111.345 80.3534C111.695 80.7043 111.934 81.1512 112.031 81.6376C112.127 82.124 112.078 82.6282 111.888 83.0864C111.698 83.5446 111.377 83.9363 110.965 84.212C110.552 84.4878 110.068 84.6351 109.572 84.6356ZM106.226 62.8901C105.561 62.8901 104.923 62.6258 104.452 62.1552C103.982 61.6847 103.717 61.0465 103.717 60.381V58.7083C103.717 58.0429 103.982 57.4047 104.452 56.9341C104.923 56.4636 105.561 56.1992 106.226 56.1992C106.892 56.1992 107.53 56.4636 108.001 56.9341C108.471 57.4047 108.735 58.0429 108.735 58.7083V60.381C108.735 61.0465 108.471 61.6847 108.001 62.1552C107.53 62.6258 106.892 62.8901 106.226 62.8901ZM119.237 68.2763C118.741 68.2759 118.256 68.1285 117.844 67.8528C117.432 67.577 117.111 67.1853 116.921 66.7271C116.731 66.2689 116.681 65.7648 116.778 65.2783C116.875 64.7919 117.113 64.345 117.464 63.9941L118.645 62.8132C119.12 62.37 119.749 62.1287 120.399 62.1402C121.049 62.1516 121.67 62.415 122.129 62.8747C122.589 63.3344 122.852 63.9546 122.864 64.6046C122.875 65.2546 122.634 65.8837 122.191 66.3594L121.01 67.5437C120.777 67.7772 120.501 67.9624 120.197 68.0887C119.893 68.215 119.566 68.2799 119.237 68.2797V68.2763ZM126.299 81.2901H124.626C123.961 81.2901 123.323 81.0258 122.852 80.5552C122.382 80.0847 122.117 79.4465 122.117 78.781C122.117 78.1156 122.382 77.4774 122.852 77.0068C123.323 76.5363 123.961 76.2719 124.626 76.2719H126.299C126.965 76.2719 127.603 76.5363 128.073 77.0068C128.544 77.4774 128.808 78.1156 128.808 78.781C128.808 79.4465 128.544 80.0847 128.073 80.5552C127.603 81.0258 126.965 81.2901 126.299 81.2901ZM120.418 95.4849C120.088 95.4851 119.762 95.4203 119.458 95.2939C119.153 95.1676 118.877 94.9824 118.645 94.7489L117.46 93.5646C117.221 93.333 117.03 93.0561 116.898 92.7499C116.767 92.4437 116.698 92.1144 116.695 91.7813C116.693 91.4481 116.756 91.1178 116.883 90.8095C117.009 90.5012 117.195 90.2211 117.431 89.9856C117.667 89.7502 117.947 89.564 118.255 89.438C118.564 89.312 118.894 89.2486 119.227 89.2517C119.56 89.2547 119.89 89.3241 120.196 89.4557C120.502 89.5874 120.779 89.7787 121.01 90.0184L122.194 91.1994C122.545 91.5503 122.783 91.9971 122.88 92.4836C122.977 92.97 122.927 93.4741 122.737 93.9323C122.547 94.3905 122.226 94.7823 121.814 95.058C121.402 95.3337 120.917 95.4811 120.421 95.4815L120.418 95.4849ZM106.226 101.363C105.561 101.363 104.923 101.099 104.452 100.628C103.982 100.157 103.717 99.5192 103.717 98.8538V97.181C103.717 96.5156 103.982 95.8774 104.452 95.4068C104.923 94.9363 105.561 94.6719 106.226 94.6719C106.892 94.6719 107.53 94.9363 108.001 95.4068C108.471 95.8774 108.735 96.5156 108.735 97.181V98.8538C108.735 99.5192 108.471 100.157 108.001 100.628C107.53 101.099 106.892 101.363 106.226 101.363ZM92.0349 95.4849C91.539 95.4845 91.0543 95.3371 90.6421 95.0613C90.2299 94.7856 89.9086 94.3939 89.7189 93.9357C89.5292 93.4775 89.4795 92.9733 89.5761 92.4869C89.6728 92.0005 89.9114 91.5536 90.2618 91.2027L91.4428 90.0184C91.6725 89.7719 91.9495 89.5742 92.2573 89.437C92.5651 89.2999 92.8973 89.2262 93.2342 89.2202C93.5711 89.2143 93.9057 89.2762 94.2182 89.4024C94.5306 89.5286 94.8144 89.7165 95.0527 89.9547C95.2909 90.193 95.4787 90.4768 95.6049 90.7892C95.7311 91.1016 95.7931 91.4363 95.7872 91.7732C95.7812 92.1101 95.7075 92.4423 95.5703 92.7501C95.4332 93.0579 95.2355 93.3349 94.989 93.5646L93.808 94.7489C93.5756 94.9824 93.2993 95.1676 92.995 95.2939C92.6907 95.4203 92.3644 95.4851 92.0349 95.4849ZM87.8263 81.2901H86.1536C85.4882 81.2901 84.85 81.0258 84.3794 80.5552C83.9089 80.0847 83.6445 79.4465 83.6445 78.781C83.6445 78.1156 83.9089 77.4774 84.3794 77.0068C84.85 76.5363 85.4882 76.2719 86.1536 76.2719H87.8263C88.4918 76.2719 89.13 76.5363 89.6005 77.0068C90.0711 77.4774 90.3354 78.1156 90.3354 78.781C90.3354 79.4465 90.0711 80.0847 89.6005 80.5552C89.13 81.0258 88.4918 81.2901 87.8263 81.2901ZM93.2159 68.2763C92.8866 68.277 92.5605 68.2126 92.2562 68.0869C91.9519 67.9612 91.6755 67.7766 91.4428 67.5437L90.2618 66.3627C89.8046 65.8897 89.5514 65.256 89.5568 64.5981C89.5622 63.9403 89.8257 63.3108 90.2907 62.8454C90.7557 62.38 91.3849 62.1158 92.0428 62.1098C92.7007 62.1037 93.3346 62.3564 93.808 62.8132L94.9923 63.9975C95.3428 64.3484 95.5814 64.7952 95.678 65.2817C95.7746 65.7681 95.725 66.2722 95.5352 66.7305C95.3455 67.1887 95.0243 67.5804 94.612 67.8561C94.1998 68.1318 93.7152 68.2792 93.2192 68.2797L93.2159 68.2763Z" fill="#3E96ED"/>
<path d="M110.575 124.781H101.877C100.059 124.779 98.3155 124.056 97.0297 122.77C95.7439 121.485 95.0208 119.741 95.019 117.923V115.645C94.9991 115.237 94.8529 114.845 94.6005 114.524C94.3482 114.202 94.0023 113.967 93.6106 113.851C92.4999 113.45 91.4093 113.002 90.3488 112.5C89.9899 112.304 89.579 112.225 89.1731 112.274C88.7672 112.322 88.3865 112.496 88.0839 112.771L86.4714 114.387C85.8366 115.026 85.0811 115.532 84.249 115.877C83.4168 116.221 82.5245 116.397 81.6238 116.394C80.7228 116.396 79.8302 116.22 78.9976 115.876C78.165 115.531 77.4089 115.025 76.7729 114.387L70.624 108.231C69.338 106.945 68.6155 105.201 68.6155 103.382C68.6155 101.563 69.338 99.8187 70.624 98.5326L72.2298 96.9267C72.5051 96.6238 72.6794 96.2427 72.7285 95.8364C72.7777 95.43 72.6993 95.0184 72.5041 94.6585C72.0039 93.5919 71.554 92.5023 71.1559 91.3934C71.0393 91.0023 70.8042 90.6571 70.483 90.4054C70.1618 90.1537 69.7703 90.008 69.3628 89.9883H67.0845C65.2664 89.9856 63.5235 89.2622 62.238 87.9766C60.9524 86.691 60.229 84.9482 60.2263 83.1301V74.4319C60.229 72.6138 60.9524 70.871 62.238 69.5854C63.5235 68.2998 65.2664 67.5764 67.0845 67.5737H69.3628C69.7703 67.554 70.1618 67.4083 70.483 67.1566C70.8042 66.9049 71.0393 66.5597 71.1559 66.1686C71.554 65.0546 72.0057 63.9673 72.5041 62.9068C72.6992 62.5472 72.7779 62.1359 72.7294 61.7296C72.6808 61.3234 72.5075 60.9422 72.2332 60.6386L70.6273 59.0294C69.9901 58.3925 69.4845 57.6363 69.1396 56.804C68.7947 55.9716 68.6172 55.0795 68.6172 54.1785C68.6172 53.2776 68.7947 52.3854 69.1396 51.5531C69.4845 50.7207 69.9901 49.9645 70.6273 49.3276L76.7729 43.1787C78.0614 41.8957 79.8056 41.1754 81.6238 41.1754C83.4421 41.1754 85.1863 41.8957 86.4748 43.1787L88.0806 44.7845C88.3829 45.0596 88.7631 45.234 89.1688 45.2838C89.5745 45.3335 89.9856 45.2561 90.3454 45.0622C91.4093 44.5626 92.4977 44.1132 93.6106 43.714C94.0025 43.5973 94.3486 43.3618 94.6009 43.04C94.8532 42.7181 94.9993 42.3259 95.019 41.9174V39.6392C95.0208 37.8208 95.7439 36.0775 97.0297 34.7917C98.3155 33.5059 100.059 32.7828 101.877 32.781H110.575C112.394 32.7828 114.137 33.5059 115.423 34.7917C116.709 36.0775 117.432 37.8208 117.434 39.6392V41.9174C117.454 42.3255 117.6 42.7172 117.852 43.0384C118.104 43.3597 118.45 43.5946 118.842 43.7106C119.955 44.1121 121.042 44.5615 122.104 45.0588C122.464 45.2539 122.875 45.3324 123.282 45.2832C123.688 45.2341 124.069 45.0598 124.372 44.7845L125.978 43.1787C127.266 41.8957 129.011 41.1754 130.829 41.1754C132.647 41.1754 134.391 41.8957 135.68 43.1787L141.829 49.331C143.115 50.6171 143.837 52.3614 143.837 54.1802C143.837 55.999 143.115 57.7433 141.829 59.0294L140.223 60.6353C139.948 60.9382 139.773 61.3193 139.724 61.7256C139.675 62.132 139.753 62.5436 139.948 62.9035C140.447 63.9673 140.899 65.0546 141.297 66.1686C141.413 66.5597 141.648 66.9049 141.97 67.1566C142.291 67.4083 142.682 67.554 143.09 67.5737H145.368C147.186 67.5764 148.929 68.2998 150.215 69.5854C151.5 70.871 152.224 72.6138 152.226 74.4319V83.1301C152.224 84.9482 151.5 86.691 150.215 87.9766C148.929 89.2622 147.186 89.9856 145.368 89.9883H143.09C142.682 90.008 142.291 90.1537 141.97 90.4054C141.648 90.6571 141.413 91.0023 141.297 91.3934C140.899 92.5074 140.447 93.5947 139.948 94.6552C139.753 95.0148 139.675 95.4261 139.723 95.8324C139.772 96.2386 139.945 96.6198 140.219 96.9234L141.825 98.5326C142.463 99.1695 142.968 99.9257 143.313 100.758C143.658 101.59 143.835 102.483 143.835 103.383C143.835 104.284 143.658 105.177 143.313 106.009C142.968 106.841 142.463 107.597 141.825 108.234L135.68 114.383C134.392 115.667 132.647 116.388 130.829 116.388C129.01 116.388 127.266 115.667 125.978 114.383L124.372 112.778C124.069 112.503 123.689 112.329 123.284 112.28C122.878 112.23 122.467 112.307 122.107 112.5C121.043 112.999 119.955 113.449 118.842 113.848C118.45 113.965 118.104 114.2 117.852 114.522C117.599 114.844 117.453 115.236 117.434 115.645V117.923C117.432 119.741 116.709 121.485 115.423 122.77C114.137 124.056 112.394 124.779 110.575 124.781ZM89.3385 107.244C90.4289 107.247 91.5051 107.492 92.4899 107.96C93.4043 108.393 94.3421 108.782 95.3034 109.128C96.673 109.585 97.8653 110.46 98.714 111.628C99.5627 112.796 100.025 114.201 100.037 115.645V117.923C100.037 118.411 100.231 118.879 100.576 119.224C100.921 119.569 101.389 119.763 101.877 119.763H110.575C111.063 119.763 111.531 119.569 111.876 119.224C112.222 118.879 112.415 118.411 112.415 117.923V115.645C112.427 114.201 112.889 112.797 113.737 111.629C114.585 110.46 115.777 109.586 117.146 109.128C118.106 108.783 119.049 108.392 119.966 107.96C121.258 107.317 122.719 107.093 124.145 107.319C125.57 107.546 126.889 108.212 127.918 109.225L129.524 110.837C129.696 111.008 129.899 111.144 130.123 111.237C130.347 111.329 130.587 111.377 130.829 111.377C131.072 111.376 131.312 111.328 131.536 111.235C131.759 111.142 131.963 111.006 132.134 110.834L138.279 104.685C138.45 104.514 138.586 104.311 138.678 104.088C138.771 103.865 138.818 103.625 138.818 103.383C138.818 103.142 138.771 102.902 138.678 102.679C138.586 102.456 138.45 102.253 138.279 102.082L136.673 100.473C135.661 99.4441 134.995 98.1249 134.768 96.6993C134.541 95.2737 134.765 93.8129 135.409 92.5208C135.839 91.6064 136.227 90.6663 136.573 89.7006C137.03 88.3311 137.905 87.1389 139.073 86.2907C140.242 85.4425 141.646 84.9808 143.09 84.9701H145.368C145.856 84.9692 146.323 84.7751 146.668 84.4302C147.013 84.0853 147.207 83.6178 147.208 83.1301V74.4319C147.207 73.9442 147.013 73.4767 146.668 73.1318C146.323 72.7869 145.856 72.5928 145.368 72.5919H143.09C141.646 72.5812 140.242 72.1195 139.073 71.2713C137.905 70.4231 137.03 69.2309 136.573 67.8614C136.227 66.898 135.839 65.9579 135.409 65.0412C134.765 63.7491 134.541 62.2883 134.768 60.8627C134.995 59.4371 135.661 58.1179 136.673 57.0891L138.279 55.4833C138.45 55.3124 138.586 55.1095 138.678 54.8862C138.771 54.6629 138.818 54.4236 138.818 54.1819C138.818 53.9402 138.771 53.7008 138.678 53.4775C138.586 53.2542 138.45 53.0514 138.279 52.8805L132.13 46.7249C131.785 46.3804 131.317 46.187 130.829 46.187C130.341 46.187 129.873 46.3804 129.527 46.7249L127.922 48.334C126.891 49.3467 125.571 50.0128 124.144 50.2394C122.718 50.4661 121.256 50.2421 119.963 49.5986C119.043 49.1665 118.103 48.778 117.146 48.4344C115.776 47.9762 114.584 47.1014 113.736 45.9324C112.887 44.7633 112.426 43.3584 112.415 41.9141V39.6392C112.415 39.1512 112.222 38.6832 111.876 38.3381C111.531 37.993 111.063 37.7992 110.575 37.7992H101.877C101.389 37.7992 100.921 37.993 100.576 38.3381C100.231 38.6832 100.037 39.1512 100.037 39.6392V41.9174C100.026 43.361 99.5634 44.765 98.7154 45.9333C97.8673 47.1016 96.6757 47.976 95.3068 48.4344C94.3466 48.779 93.4032 49.1704 92.4865 49.602C91.1945 50.2459 89.7336 50.4702 88.3079 50.2434C86.8822 50.0167 85.5629 49.3503 84.5344 48.3374L82.9286 46.7249C82.7574 46.5533 82.554 46.4172 82.3301 46.3243C82.1062 46.2315 81.8662 46.1837 81.6238 46.1837C81.3815 46.1837 81.1415 46.2315 80.9176 46.3243C80.6937 46.4172 80.4903 46.5533 80.3191 46.7249L74.1769 52.8838C73.8326 53.2288 73.6393 53.6962 73.6393 54.1836C73.6393 54.6709 73.8326 55.1383 74.1769 55.4833L75.7827 57.0924C76.7952 58.1212 77.4613 59.4405 77.688 60.8661C77.9147 62.2916 77.6907 63.7524 77.0473 65.0446C76.6168 65.959 76.2287 66.8991 75.883 67.8648C75.4246 69.2347 74.5491 70.427 73.3794 71.2746C72.2096 72.1223 70.804 72.5829 69.3594 72.5919H67.0845C66.5968 72.5928 66.1293 72.7869 65.7844 73.1318C65.4395 73.4767 65.2454 73.9442 65.2445 74.4319V83.1301C65.2454 83.6178 65.4395 84.0853 65.7844 84.4302C66.1293 84.7751 66.5968 84.9692 67.0845 84.9701H69.3628C70.8066 84.9808 72.211 85.4425 73.3795 86.2907C74.548 87.1389 75.4222 88.3311 75.8797 89.7006C76.2254 90.6641 76.6135 91.6041 77.0439 92.5208C77.6874 93.8129 77.9114 95.2737 77.6847 96.6993C77.458 98.1249 76.7919 99.4441 75.7793 100.473L74.1735 102.079C74.0026 102.25 73.867 102.452 73.7744 102.676C73.6819 102.899 73.6343 103.138 73.6343 103.38C73.6343 103.622 73.6819 103.861 73.7744 104.084C73.867 104.308 74.0026 104.511 74.1735 104.682L80.3225 110.837C80.4938 111.008 80.6972 111.144 80.9211 111.237C81.145 111.329 81.385 111.376 81.6272 111.376C81.8672 111.377 82.105 111.33 82.3267 111.238C82.5485 111.146 82.7496 111.011 82.9185 110.84L84.5377 109.225C85.1672 108.594 85.9157 108.093 86.7397 107.754C87.5638 107.414 88.4471 107.24 89.3385 107.244Z" fill="#004FAC"/>
<path d="M106.226 109.726C98.6785 109.721 91.393 106.956 85.7425 101.952C80.0919 96.9473 76.4664 90.0495 75.5488 82.5576C74.6312 75.0656 76.485 67.4967 80.7608 61.2767C85.0367 55.0567 91.4395 50.615 98.763 48.7883C106.087 46.9617 113.825 47.8761 120.521 51.3594C127.218 54.8427 132.409 60.6544 135.117 67.6997C137.826 74.7449 137.864 82.5374 135.226 89.6092C132.587 96.681 127.454 102.544 120.793 106.093C120.205 106.407 119.517 106.474 118.88 106.281C118.243 106.087 117.709 105.649 117.395 105.061C117.082 104.474 117.014 103.786 117.208 103.149C117.401 102.512 117.84 101.977 118.427 101.664C124.015 98.688 128.321 93.7716 130.535 87.8408C132.748 81.91 132.717 75.3743 130.445 69.4653C128.174 63.5563 123.82 58.6819 118.204 55.7606C112.588 52.8392 106.098 52.0726 99.9554 53.6052C93.8133 55.1378 88.4437 58.8637 84.8583 64.081C81.273 69.2983 79.7195 75.6467 80.4906 81.93C81.2616 88.2134 84.304 93.9978 89.0444 98.1934C93.7848 102.389 99.8959 104.706 106.226 104.708C106.892 104.708 107.53 104.973 108.001 105.443C108.471 105.914 108.735 106.552 108.735 107.217C108.735 107.883 108.471 108.521 108.001 108.991C107.53 109.462 106.892 109.726 106.226 109.726Z" fill="#004FAC"/>
<path d="M297.226 171.781H243.226C237.703 171.781 233.226 176.258 233.226 181.781V233.781C233.226 239.304 237.703 243.781 243.226 243.781H297.226C302.749 243.781 307.226 239.304 307.226 233.781V181.781C307.226 176.258 302.749 171.781 297.226 171.781Z" fill="#EFF3F9"/>
<path d="M307.226 212.801V233.781C307.226 234.981 307.026 236.121 306.626 237.181C305.927 239.114 304.65 240.784 302.968 241.965C301.286 243.145 299.281 243.78 297.226 243.781H243.226C237.706 243.781 233.226 239.301 233.226 233.781V181.781C233.226 177.461 235.986 173.761 239.826 172.381C239.426 173.441 239.226 174.581 239.226 175.781V231.781C239.226 235.101 241.906 237.781 245.226 237.781H272.726C271.766 235.301 271.226 232.601 271.226 229.781C271.226 217.621 281.066 207.781 293.226 207.781C298.546 207.781 303.426 209.661 307.226 212.801Z" fill="#CFE0F3"/>
<path d="M297.226 171.781H243.226C240.574 171.781 238.031 172.835 236.155 174.71C234.28 176.585 233.226 179.129 233.226 181.781V191.781H307.226V181.781C307.226 179.129 306.173 176.585 304.298 174.71C302.422 172.835 299.879 171.781 297.226 171.781Z" fill="#0588E2"/>
<path d="M239.226 175.781C239.226 174.591 239.47 173.465 239.852 172.407C235.998 173.795 233.226 177.449 233.226 181.781V191.781H239.226V175.781Z" fill="#0075D3"/>
<path d="M253.226 199.781H249.226C247.017 199.781 245.226 201.572 245.226 203.781V207.781C245.226 209.99 247.017 211.781 249.226 211.781H253.226C255.435 211.781 257.226 209.99 257.226 207.781V203.781C257.226 201.572 255.435 199.781 253.226 199.781Z" fill="#AECEE8"/>
<path d="M271.227 199.781H267.227C265.017 199.781 263.227 201.572 263.227 203.781V207.781C263.227 209.99 265.017 211.781 267.227 211.781H271.227C273.436 211.781 275.227 209.99 275.227 207.781V203.781C275.227 201.572 273.436 199.781 271.227 199.781Z" fill="#AECEE8"/>
<path d="M289.227 199.781H285.227C283.017 199.781 281.227 201.572 281.227 203.781V207.781C281.227 209.99 283.017 211.781 285.227 211.781H289.227C291.436 211.781 293.227 209.99 293.227 207.781V203.781C293.227 201.572 291.436 199.781 289.227 199.781Z" fill="#AECEE8"/>
<path d="M285.226 211.781H289.226C290.287 211.781 291.305 211.36 292.055 210.61C292.805 209.86 293.226 208.842 293.226 207.781C289.294 207.781 285.612 208.823 282.418 210.627C283.14 211.339 284.13 211.781 285.226 211.781Z" fill="#7EAFD0"/>
<path d="M253.226 219.781H249.226C247.017 219.781 245.226 221.572 245.226 223.781V227.781C245.226 229.99 247.017 231.781 249.226 231.781H253.226C255.435 231.781 257.226 229.99 257.226 227.781V223.781C257.226 221.572 255.435 219.781 253.226 219.781Z" fill="#AECEE8"/>
<path d="M271.227 219.781H267.227C265.017 219.781 263.227 221.572 263.227 223.781V227.781C263.227 229.99 265.017 231.781 267.227 231.781H271.227C273.436 231.781 275.227 229.99 275.227 227.781V223.781C275.227 221.572 273.436 219.781 271.227 219.781Z" fill="#AECEE8"/>
<path d="M271.321 231.771C272.364 231.748 273.356 231.317 274.086 230.572C274.816 229.826 275.225 228.824 275.227 227.781V223.781C275.226 223.104 275.053 222.439 274.724 221.847C274.395 221.256 273.92 220.758 273.345 220.401C271.953 223.332 271.229 226.536 271.227 229.781C271.227 230.453 271.263 231.115 271.321 231.771Z" fill="#7EAFD0"/>
<path d="M299.227 253.781C311.377 253.781 321.227 243.932 321.227 231.781C321.227 219.631 311.377 209.781 299.227 209.781C287.076 209.781 277.227 219.631 277.227 231.781C277.227 243.932 287.076 253.781 299.227 253.781Z" fill="#0588E2"/>
<path d="M299.227 249.781C309.168 249.781 317.227 241.722 317.227 231.781C317.227 221.84 309.168 213.781 299.227 213.781C289.285 213.781 281.227 221.84 281.227 231.781C281.227 241.722 289.285 249.781 299.227 249.781Z" fill="#EFF3F9"/>
<path d="M299.226 213.781C296.624 213.78 294.053 214.344 291.691 215.436C289.329 216.527 287.232 218.119 285.546 220.101C288.798 217.31 292.942 215.778 297.226 215.781C302 215.781 306.579 217.678 309.954 221.053C313.33 224.429 315.226 229.007 315.226 233.781C315.23 238.066 313.697 242.21 310.906 245.461C312.889 243.776 314.481 241.679 315.572 239.317C316.663 236.955 317.228 234.383 317.226 231.781C317.226 227.007 315.33 222.429 311.954 219.053C308.579 215.678 304 213.781 299.226 213.781Z" fill="#CFE0F3"/>
<path d="M257.227 170.781C257.227 168.02 254.988 165.781 252.227 165.781C249.465 165.781 247.227 168.02 247.227 170.781V176.781C247.227 179.542 249.465 181.781 252.227 181.781C254.988 181.781 257.227 179.542 257.227 176.781V170.781Z" fill="#FFC343"/>
<path d="M293.227 170.781C293.227 168.02 290.988 165.781 288.227 165.781C285.465 165.781 283.227 168.02 283.227 170.781V176.781C283.227 179.542 285.465 181.781 288.227 181.781C290.988 181.781 293.227 179.542 293.227 176.781V170.781Z" fill="#FFC343"/>
<path d="M256.226 177.781C254.9 177.781 253.629 177.254 252.691 176.317C251.753 175.379 251.226 174.107 251.226 172.781V166.781C251.226 166.469 251.264 166.167 251.318 165.873C250.17 166.084 249.132 166.69 248.385 167.587C247.637 168.484 247.227 169.614 247.226 170.781V176.781C247.222 178.03 247.685 179.235 248.525 180.159C249.365 181.083 250.521 181.658 251.765 181.772C253.008 181.886 254.249 181.53 255.243 180.774C256.237 180.018 256.912 178.918 257.134 177.689C256.835 177.747 256.531 177.778 256.226 177.781ZM292.226 177.781C290.9 177.781 289.629 177.254 288.691 176.317C287.753 175.379 287.226 174.107 287.226 172.781V166.781C287.226 166.469 287.264 166.167 287.318 165.873C286.17 166.084 285.132 166.69 284.385 167.587C283.637 168.484 283.227 169.614 283.226 170.781V176.781C283.222 178.03 283.685 179.235 284.525 180.159C285.366 181.083 286.521 181.658 287.765 181.772C289.008 181.886 290.249 181.53 291.243 180.774C292.237 180.018 292.912 178.918 293.134 177.689C292.835 177.747 292.531 177.778 292.226 177.781Z" fill="#FFA221"/>
<path d="M303.227 237.781C302.964 237.782 302.704 237.73 302.461 237.629C302.218 237.529 301.998 237.381 301.813 237.195L297.813 233.195C297.437 232.82 297.227 232.312 297.227 231.781V221.781C297.227 221.251 297.437 220.742 297.812 220.367C298.187 219.992 298.696 219.781 299.227 219.781C299.757 219.781 300.266 219.992 300.641 220.367C301.016 220.742 301.227 221.251 301.227 221.781V230.953L304.641 234.367C304.921 234.647 305.112 235.003 305.19 235.391C305.268 235.779 305.228 236.182 305.077 236.548C304.925 236.914 304.669 237.226 304.339 237.446C304.01 237.665 303.623 237.782 303.227 237.781Z" fill="#0D3B8D"/>
<defs>
<filter id="filter0_ddddd_228_443" x="7.43866e-05" y="4.25577e-05" width="381.855" height="353.055" filterUnits="userSpaceOnUse" color-interpolation-filters="sRGB">
<feFlood flood-opacity="0" result="BackgroundImageFix"/>
<feColorMatrix in="SourceAlpha" type="matrix" values="0 0 0 0 0 0 0 0 0 0 0 0 0 0 0 0 0 0 127 0" result="hardAlpha"/>
<feOffset dy="1.11566"/>
<feGaussianBlur stdDeviation="0.948313"/>
<feColorMatrix type="matrix" values="0 0 0 0 0.219608 0 0 0 0 0.219608 0 0 0 0 0.219608 0 0 0 0.0240741 0"/>
<feBlend mode="normal" in2="BackgroundImageFix" result="effect1_dropShadow_228_443"/>
<feColorMatrix in="SourceAlpha" type="matrix" values="0 0 0 0 0 0 0 0 0 0 0 0 0 0 0 0 0 0 127 0" result="hardAlpha"/>
<feOffset dy="4.90891"/>
<feGaussianBlur stdDeviation="1.96356"/>
<feColorMatrix type="matrix" values="0 0 0 0 0.219608 0 0 0 0 0.219608 0 0 0 0 0.219608 0 0 0 0.0392593 0"/>
<feBlend mode="normal" in2="effect1_dropShadow_228_443" result="effect2_dropShadow_228_443"/>
<feColorMatrix in="SourceAlpha" type="matrix" values="0 0 0 0 0 0 0 0 0 0 0 0 0 0 0 0 0 0 127 0" result="hardAlpha"/>
<feOffset dy="12.0491"/>
<feGaussianBlur stdDeviation="3.91597"/>
<feColorMatrix type="matrix" values="0 0 0 0 0.219608 0 0 0 0 0.219608 0 0 0 0 0.219608 0 0 0 0.05 0"/>
<feBlend mode="normal" in2="effect2_dropShadow_228_443" result="effect3_dropShadow_228_443"/>
<feColorMatrix in="SourceAlpha" type="matrix" values="0 0 0 0 0 0 0 0 0 0 0 0 0 0 0 0 0 0 127 0" result="hardAlpha"/>
<feOffset dy="23.2058"/>
<feGaussianBlur stdDeviation="7.67575"/>
<feColorMatrix type="matrix" values="0 0 0 0 0.219608 0 0 0 0 0.219608 0 0 0 0 0.219608 0 0 0 0.0607407 0"/>
<feBlend mode="normal" in2="effect3_dropShadow_228_443" result="effect4_dropShadow_228_443"/>
<feColorMatrix in="SourceAlpha" type="matrix" values="0 0 0 0 0 0 0 0 0 0 0 0 0 0 0 0 0 0 127 0" result="hardAlpha"/>
<feOffset dy="39.0482"/>
<feGaussianBlur stdDeviation="14.1131"/>
<feColorMatrix type="matrix" values="0 0 0 0 0.219608 0 0 0 0 0.219608 0 0 0 0 0.219608 0 0 0 0.0759259 0"/>
<feBlend mode="normal" in2="effect4_dropShadow_228_443" result="effect5_dropShadow_228_443"/>
<feBlend mode="normal" in="SourceGraphic" in2="effect5_dropShadow_228_443" result="shape"/>
</filter>
</defs>
</svg>
